<?xml version="1.0" encoding="utf-8"?>
<!-- Generator: Adobe Illustrator 19.1.1, SVG Export Plug-In . SVG Version: 6.00 Build 0)  -->
<svg version="1.1" xmlns="http://www.w3.org/2000/svg" xmlns:xlink="http://www.w3.org/1999/xlink" x="0px" y="0px"
	 viewBox="0 0 491 566.9" style="enable-background:new 0 0 491 566.9;" xml:space="preserve">
<style type="text/css">
	.st0{fill:#EDEDED;}
	.st1{fill:#173944;}
	.st2{fill:#E22735;}
	.st3{fill:#AD1F30;}
	.st4{fill:#EF5659;}
	.st5{fill:#F7A29C;}
	.st6{fill:#E73744;}
	.st7{fill:#A21E31;}
	.st8{fill:#C52233;}
	.st9{fill:#831933;}
	.st10{font-family:'Helvetica';}
	.st11{font-size:18.6254px;}
</style>
<g id="Background">
	<polygon class="st0" points="245.5,547.6 16.8,415.5 16.8,151.4 245.5,19.4 474.2,151.4 474.2,415.5 	"/>
</g>
<g id="Graphique">
	<g>
		<ellipse class="st2" cx="249.7" cy="132.9" rx="95.5" ry="17"/>
		<path class="st3" d="M249.7,152.3c-39.4,0-97.9-5.2-97.9-19.4c0-14.2,58.5-19.4,97.9-19.4s97.9,5.2,97.9,19.4
			C347.6,147.2,289.1,152.3,249.7,152.3z M249.7,118.3c-61.2,0-93.2,9.6-93.2,14.7c0,5.1,32,14.7,93.2,14.7s93.2-9.6,93.2-14.7
			C342.9,127.8,310.9,118.3,249.7,118.3z"/>
	</g>
	<g>
		<g>
			<g>
				<path class="st0" d="M254.3,127.8c-4.6,4.9-8.9,3.2-13-0.2c0.6,9.3,1.2,18.6,1.8,27.8c0,0.4,0.2,0.8,0.3,1.2c2.4,0,4.8,0,7.2,0
					c0.4-0.2,0.8-0.4,1.2-0.6c0-0.1,0-0.2,0-0.2c-0.7,0-1.3,0.1-2,0.1c0-0.1-0.1-0.2-0.1-0.2c0.4-0.1,0.8-0.3,1.2-0.4
					c0-0.1,0-0.2,0-0.2c-0.4-0.1-0.8-0.1-1.2-0.2c0-0.1,0-0.2,0-0.2c0.7-0.1,1.3-0.2,2-0.2c0-0.1,0-0.2,0-0.3
					c-0.8,0-1.6-0.1-2.4-0.1c0-0.1,0-0.1,0-0.2c0.8-0.1,1.7-0.3,2.5-0.4c0-0.1,0-0.2,0-0.3c-0.3,0-0.7,0-1,0c1.8-0.6,0.8-2,1.1-3.1
					c-0.7,0-1.2,0-1.7,0c0-0.1,0-0.1-0.1-0.2c0.6-0.2,1.3-0.3,1.9-0.5c0-0.1,0-0.2-0.1-0.3c-0.7,0-1.4,0-2.1,0c0,0,0-0.1-0.1-0.1
					c0.7-0.2,1.4-0.4,2.2-0.6c0-0.1,0-0.2-0.1-0.3c-0.3,0-0.7,0-1,0c0-0.1,0-0.2-0.1-0.3c0.3-0.2,0.7-0.3,1.4-0.6
					c-1.1-0.1-1.9-0.1-2.6-0.2c0-0.1,0-0.1,0-0.2c0.7-0.1,1.5-0.2,2.3-0.3c0-0.4,0-0.9,0-1.4c-0.5-0.1-1-0.1-1.8-0.2
					c0.8-0.3,1.4-0.5,1.9-0.7c0-0.1-0.1-0.2-0.1-0.3c-0.6,0-1.1,0-1.7,0c0-0.1,0-0.2,0-0.3c0.5-0.1,1.1-0.2,1.7-0.3
					c0-0.4,0-0.9,0-1.5c-0.4,0-0.7,0.1-1,0.1c0-0.1-0.1-0.2-0.1-0.3c0.4-0.2,0.8-0.3,1.4-0.6c-0.6-0.2-0.9-0.2-1.4-0.4
					c0.5-0.3,0.9-0.4,1.3-0.6c0-0.1,0-0.2,0-0.2c-0.7,0.1-1.5,0.1-2.2,0.2c0-0.1,0-0.2,0-0.2c0.7-0.2,1.4-0.3,2.2-0.5
					c0-0.5,0.1-1,0.1-1.6c-0.6,0.1-1.2,0.2-1.7,0.3c0-0.1-0.1-0.2-0.1-0.2c0.6-0.2,1.2-0.4,1.8-0.6c0-0.1,0-0.2,0-0.2
					c-0.3-0.1-0.7-0.1-1.3-0.2c0.6-0.3,1-0.5,1.7-0.8c-0.8-0.1-1.1-0.1-1.2-0.1c0.3-0.6,0.6-1.2,1-2c-0.9,0-1.4,0.1-2,0.1
					c0-0.1,0-0.1,0-0.2c0.8-0.2,1.5-0.4,2.3-0.7c0-0.1,0-0.3-0.1-0.4c-0.8,0.1-1.5,0.2-2.6,0.4C252,131.4,253.2,129.8,254.3,127.8z"
					/>
				<path class="st0" d="M213.3,154.1c0-0.1-0.1-0.1-0.1-0.2c0.3-0.2,0.6-0.4,1.2-0.8c-0.5-0.1-0.7-0.1-1.1-0.2
					c0.1-0.3,0.2-0.6,0.4-1c-0.3-0.1-0.6-0.1-0.9-0.2c0.2-0.3,0.4-0.6,0.7-1c-0.2,0-0.4,0-0.5,0c-0.4-1.5-0.8-2.9-1.3-4.3
					c-0.3,0.1-0.6,0.1-1.2,0.3c0.5-0.4,0.8-0.6,1.4-1.1c-0.7,0.1-1,0.2-1.3,0.2c0-0.1,0-0.2,0-0.2c0.4-0.4,0.7-0.5,0.1-1.2
					c-0.5-0.6-0.5-1.7-0.7-2.7c-0.2,0.3-0.4,0.5-0.6,0.8c0-1,0-1.9,0-3.2c-0.6,0.6-0.8,0.9-1.1,1.3c-0.1,0-0.1-0.1-0.2-0.1
					c0.3-0.6,0.5-1.2,0.9-1.9c-0.4,0.1-0.6,0.1-0.9,0.2c-0.1-0.1-0.2-0.3-0.4-0.4c0.4-0.1,0.8-0.2,1.5-0.3c-1-0.7-1.4-1.1-2-1.5
					c0,0,0.3-0.3,0.6-0.7c0-0.1-0.1-0.1-0.1-0.2c-0.3,0.1-0.6,0.2-0.9,0.4c-0.1-0.4-0.2-0.7-0.4-1.2c0.3,0.2,0.5,0.4,0.9,0.7
					c-0.3-0.8-0.6-1.4-0.8-2c0.1-0.1,0.2-0.1,0.3-0.2c-0.3,0-0.5-0.1-0.9-0.1c0.3-0.3,0.5-0.5,0.7-0.7c-0.4,0-0.7-0.1-1.3-0.1
					c0.5-0.3,0.8-0.5,1.3-0.9c-0.5,0-0.8,0-1.4,0c1.2-1.1,0.8-1.6-0.4-1.8c0.4-0.8,0.7-1.5,1-2.2c-3.3,1.1-6.6,2.1-9.8,3.2
					c-0.1-0.2-0.1-0.3-0.2-0.5c0.5-0.3,1.1-0.6,1.8-1c-0.8-0.9-1.5-1.7-2.3-2.6c-1,1.9-0.4,3.6,0.4,5.1c4.2,8.1,8.4,16.3,12.5,24.4
					c0.1,0.1,0.1,0.3,0.1,0.4c1.9,0,3.8,0,5.7,0c1.5-0.8,0.2-1.8,0.2-2.8C213.9,153.9,213.6,154,213.3,154.1z"/>
				<path class="st0" d="M223.1,155.1c0.4-0.4,0.7-0.7,1.1-1.1c-0.8,0.1-1.4,0.1-2.3,0.2c0.9-0.4,1.4-0.6,1.9-0.8
					c0-0.1-0.1-0.2-0.1-0.3c-0.5,0.1-0.9,0.2-1.4,0.3c0-0.1-0.1-0.2-0.1-0.2c0.4-0.2,0.9-0.4,1.3-0.7c0-0.1,0-0.2,0-0.3
					c-0.5,0-0.9,0.1-1.8,0.2c0.8-0.4,1.2-0.6,2-1c-1.2,0.1-2.1,0.1-2.9,0.1c0,0,0-0.1,0-0.1c0.8-0.2,1.7-0.4,2.5-0.6
					c0-0.1,0-0.2-0.1-0.3c-0.6,0-1.2,0.1-2.2,0.2c0.9-0.4,1.4-0.6,1.9-0.8c0-0.1,0-0.1,0-0.2c-0.5,0-1.1,0.1-1.8,0.2
					c0.6-0.7,2.4-0.4,1.4-1.9c-0.3,0-0.7,0-1.1,0.1c0-0.1-0.1-0.2-0.1-0.3c0.4-0.2,0.7-0.3,1.1-0.5c0-0.1,0-0.1,0-0.2
					c-0.4,0-0.8,0-1.2,0.1c0-0.1,0-0.2-0.1-0.2c0.4-0.2,0.8-0.4,1.2-0.5c0-0.1,0-0.2-0.1-0.2c-0.3,0.1-0.6,0.1-0.9,0.2
					c-0.1-0.1-0.1-0.2-0.2-0.3c0.3-0.2,0.5-0.5,0.9-0.8c-0.4,0-0.7,0-1.5-0.1c0.6-0.3,0.9-0.5,1.2-0.7c0-0.1-0.1-0.2-0.1-0.2
					c-0.5,0-1,0-1.8,0c0.7-0.3,1.1-0.5,1.4-0.7c-0.4-0.4-0.8-0.8-1.4-1.4c-0.2,0.1-0.6,0.2-1,0.4c0-0.1-0.1-0.2-0.1-0.3
					c0.7-0.3,1.5-0.6,2.2-0.9c0-0.1,0-0.2-0.1-0.3c-0.7,0.1-1.4,0.2-2.1,0.3c0-0.1,0-0.1-0.1-0.2c0.6-0.3,1.3-0.5,1.9-0.8
					c0-0.1,0-0.2,0-0.3c-0.7,0.1-1.4,0.2-2.1,0.2c0-0.1,0-0.1,0-0.2c0.6-0.2,1.2-0.5,1.9-0.7c0-0.1,0-0.2-0.1-0.3
					c-0.7,0.1-1.4,0.2-2.1,0.3c0-0.1,0-0.1-0.1-0.2c0.7-0.3,1.4-0.6,2.1-0.9c0-0.1-0.1-0.2-0.1-0.3c-0.8,0.2-1.6,0.4-2.4,0.6
					c0-0.1-0.1-0.1-0.1-0.2c0.7-0.3,1.5-0.7,2.7-1.2c-0.7-0.1-1.1-0.1-1.6-0.1c0.4-0.4,0.7-0.6,1.1-0.9c-0.5,0-0.9,0-1.6,0.1
					c0.5-0.4,0.8-0.7,1.2-1c-0.9,0-1.5,0.1-2.4,0.1c0.8-0.3,1.3-0.5,2.3-0.9c-1.1,0-1.7,0-2.8,0c1-0.3,1.7-0.5,2.3-0.7
					c0-0.1,0-0.2-0.1-0.3c-0.7,0.1-1.3,0.1-2,0.2c0-0.1-0.1-0.1-0.1-0.2c0.7-0.2,1.4-0.4,2-0.6c0-0.1,0-0.2,0-0.3
					c-0.7,0.1-1.4,0.1-2.4,0.2c1-0.4,1.6-0.6,2.2-0.9c0-0.1,0-0.2-0.1-0.3c-0.5-0.1-0.9-0.2-1.4-0.3c0.4-0.1,0.7-0.1,1.3-0.2
					c-0.3-0.6-0.5-1.2-0.8-2c0.1-0.2,0.3-0.7,0.5-1.1c-3.2,1-6.2,1.9-9.3,2.8c-0.1-0.2-0.1-0.3-0.2-0.5c0.3-0.3,0.6-0.5,0.9-0.8
					c-0.8-0.9-1.6-1.8-2.4-2.6c-0.1,0.1-0.2,0.1-0.4,0.2c0.3,1.2,0.6,2.4,1,3.6c2.9,8.3,5.9,16.5,8.8,24.8c0.1,0.3,0.1,0.7,0.2,1
					c2.7,0,5.4,0,8.1,0c0-0.3,0-0.6,0-0.9c-0.3,0.1-0.6,0.2-0.9,0.3c0-0.1-0.1-0.1-0.1-0.2c0.3-0.2,0.6-0.5,1.2-0.9
					C223.9,155,223.6,155,223.1,155.1z"/>
				<path class="st0" d="M204,151c0.1-0.1,0.3-0.1,0.4-0.2c-0.6-0.7-1.9-0.9-1.4-2.4c0.2-0.5-0.8-1.3-1.3-2
					c-0.1,0.1-0.3,0.1-0.4,0.2c0.3-0.2,0.5-0.4,0.8-0.7c0-0.1-0.1-0.1-0.1-0.2c-0.3,0.1-0.6,0.2-1.1,0.3c-0.1-0.7-0.3-1.4-0.4-2.3
					c0,0-0.3,0.1-0.9,0.3c0.4-0.5,0.6-0.8,0.9-1.1c0-0.1-0.1-0.1-0.1-0.2c-0.3,0.1-0.6,0.3-1.2,0.6c0.4-0.7,0.6-1.1,0.9-1.7
					c-0.5,0.2-0.9,0.3-1.6,0.6c0.5-0.6,0.8-1,1.2-1.6c-1.1,0.4-1.7,0.3-1.4-0.9c0.3-1.4-0.7-2.1-2-2.6c0.3-0.3,0.6-0.5,0.8-0.8
					c-1.8-0.4-1.2-2.2-1.9-3.3c-0.7-0.9-1.3-2-1.7-3.1c-0.2-0.5,0.3-1.2,0.5-1.8c0.1-0.3,0.4-0.5,0.8-1.1c-2.8,1.1-5.3,2-7.3,2.8
					c-1.1-1.1-1.9-1.9-2.7-2.6c-1.1,1.9-0.5,3.5,0.6,5.2c3.7,5.7,7.4,11.5,11.2,17.3c0.4,0.6,0.9,1.2,1.3,1.8c0.1,0,0.1-0.1,0.2-0.1
					c-0.3-0.6-0.7-1.3-1-1.9c0.1-0.1,0.3-0.1,0.4-0.2c1.5,2.5,3.1,5,4.6,7.5c1.6,0,3.2,0,4.8,0c0.1-0.2,0.1-0.4,0.3-0.8
					c-0.3,0.1-0.5,0.2-0.7,0.3C205.7,154.4,204.8,152.7,204,151z"/>
				<path class="st0" d="M184.9,127.2c-0.3-0.1-0.6-0.3-0.9-0.2c-2.6,0.7-5.2,1.4-8.3,2.2c0.3-1.3,0.4-2.1,0.6-3.1
					c-2.5,0.5-4.9,0.9-7.5,1.4c1.4,1.8,2.7,3.6,4,5.3c4.5,6.2,9,12.4,13.5,18.6c1.2,1.7,2.4,3.5,3.7,5.3c3.3,0,6.6,0,10,0
					c-5.7-9.1-11.4-18.3-17.1-27.4C183.6,128.5,184.2,127.8,184.9,127.2C184.9,127.2,184.9,127.2,184.9,127.2
					C184.9,127.1,184.9,127.1,184.9,127.2L184.9,127.2z M194.6,155.7c-0.1,0.1-0.2,0.2-0.3,0.2c-0.2-0.2-0.5-0.5-0.7-0.8
					c-3-4.1-5.9-8.1-8.9-12.2c-3.2-4.4-6.4-8.8-9.5-13.3c-0.3-0.5-0.5-1.1-0.7-1.7c0.1,0,0.2,0,0.2-0.1
					C181.4,137.2,188,146.5,194.6,155.7z"/>
				<path class="st0" d="M239.7,129c0.2-0.4,0.5-0.7,0.7-1c-2.1,0.9-4,2.1-6.1,2.6c-2.5,0.6-3.9-1.7-6-3.5c0.2,1.3,0.3,2.1,0.4,3
					c1.4,7.9,2.8,15.9,4.2,23.8c0.2,0.9,0.4,1.8,0.6,2.6c2.1,0,4.2,0,6.3,0c0-0.8,0-1.7,0-2.6c-0.5,0.1-0.9,0.2-1.2,0.2
					c0-0.1,0-0.1-0.1-0.2c0.4-0.2,0.8-0.4,1.1-0.6c-0.1-0.3-0.2-0.7-0.3-1c0.1-0.1,0.2-0.1,0.4-0.2c-0.2-0.1-0.5-0.2-0.9-0.3
					c0.4-0.2,0.7-0.4,1.3-0.9c-0.7,0-0.9,0-1.2,0c0-0.1-0.1-0.2-0.1-0.2c0.3-0.2,0.6-0.3,1.3-0.7c-1,0-1.7,0-2.7,0
					c0.8-0.4,1.1-0.6,1.5-0.8c0-0.1,0-0.2-0.1-0.2c-0.4,0-0.8,0-1.1,0c0.1-1.7,0.2-3.2,0.3-4.7c0-0.7,0-1.7,1.2-1.1
					c0.1,0,0.3-0.3,0.7-0.6c-1.1,0-2,0-3,0c0.4-0.3,0.7-0.5,1-0.7c-0.5-0.2-0.9-0.4-1.3-0.6c0.4-0.1,0.7-0.2,1-0.3
					c0-0.1,0-0.2,0-0.3c-0.5-0.1-0.9-0.3-1.6-0.5c0.9-0.2,1.6-0.3,2.3-0.5c0-0.1,0-0.2,0-0.2c-0.4,0-0.8,0-1.1-0.1
					c0-0.1,0-0.2-0.1-0.2c0.4-0.2,0.7-0.3,1.5-0.6c-0.8-0.1-1.3-0.1-1.7-0.2c0-0.1,0-0.2,0-0.2c0.4-0.1,0.7-0.2,1.1-0.3
					c0-0.4-0.1-0.9-0.1-1.4c-0.4,0-0.7,0-1.5,0c1-0.4,1.7-0.7,2.3-1c0-0.1,0-0.1-0.1-0.2c-0.5,0-1,0.1-1.4,0.1
					c0-0.1-0.1-0.1-0.1-0.2c0.5-0.3,0.9-0.5,1.6-1c-1.2,0-2.1,0-3,0c0,0,0-0.1-0.1-0.1c0.8-0.2,1.7-0.4,2.7-0.7
					c0-0.9-0.2-1.9,0.1-2.8C238.7,130.2,239.3,129.6,239.7,129z"/>
				<path class="st0" d="M264.2,132.3c1.1-1.3,2.2-2.6,3.3-3.8c-0.1-0.2-0.2-0.4-0.3-0.6c-4.1,5.4-8,2.5-11.9-0.2
					c1,6.5,0.3,12.9,0.3,19.3c0,3.2-0.2,6.5-0.2,9.7c2,0,4,0,6,0c0-1,0-2.1,0-3.2c0.4-0.1,0.7-0.2,1.1-0.3c0-0.1,0-0.2,0-0.2
					c-0.3,0-0.7,0-1,0c0-0.1,0-0.2-0.1-0.3c0.3-0.1,0.6-0.3,1.3-0.6c-0.6,0-0.9-0.1-1.5-0.1c0.3-1,0.6-1.9,0.9-3
					c0.1,0-0.2,0-0.8-0.2c0.5-0.3,0.9-0.4,1.3-0.6c-0.5-0.1-0.8-0.1-1.5-0.3c0.7-0.3,1-0.4,1.2-0.5c-0.2-0.3-0.6-0.6-0.5-0.8
					c0.1-0.4,0.4-0.8,0.6-1.2c-0.1,0-0.4,0-0.7-0.1c1.3-0.9,1.3-1.3,0.4-1.8c0.6-0.7,1.5-1.3,1.7-2.1c0.5-1.8,0.1-2.4-0.9-3
					c0.5-0.1,0.8-0.2,1.1-0.3c0-0.1,0-0.2,0-0.3c-0.5-0.1-1.1-0.2-1.8-0.4c0.6-0.1,1.1-0.1,1.6-0.2c0-0.6,0-1.1,0-1.8
					c-0.3,0.1-0.7,0.2-1,0.3c0-0.1-0.1-0.2-0.1-0.3c0.4-0.1,0.7-0.3,1.3-0.4C264,134.2,264.1,133.1,264.2,132.3z"/>
				<path class="st0" d="M287.4,138.1c0-1,0.8-2.1,1.2-3.1c0.9-2.1,1.9-4.1,2.9-6.2c0.2-0.4,0.2-0.7,0-1.3c-0.7,1.2-1.4,2.4-2.3,3.9
					c-2.9-1-5.9-2.2-8.8-3.2c1.9,3.2,0.2,6.7-0.3,10.3c-0.2,1-0.3,2-0.6,2.9c-0.2,0.7,0.4,2-1.1,2c0,0.2,0,0.5,0,0.7
					c0.1,0,0.1,0,0.1,0c0,0,0-0.1,0-0.1c0.1-0.1,0.2-0.2,0.3-0.4c0.1,0.2,0.3,0.3,0.3,0.3c-0.2,0.6-0.4,1.3-0.7,2.1c0,0,0.1,0,0.1,0
					c-0.4,1.2-1,2.3-1.1,3.5c-0.1,2.2-0.8,4.4-1,6.6c0,0.2-0.4,0.4-0.6,0.5c1.9,0,3.8,0,5.7,0c-0.2-0.3-0.5-0.7-0.8-1.1
					c0.4,0,0.7,0,1.3,0c-0.6-0.4-1-0.7-1.6-1.1c0.7,0.1,1.2,0.2,2.1,0.3c-0.8-0.5-1.2-0.7-1.6-1.1c0.5,0,1,0.1,1.7,0.1
					c-0.3-0.3-0.4-0.5-0.6-0.7c1-0.4,1.7-2.4,1.3-3.5c-0.3-0.7,0-1.2,1.3-1.4c-0.6-0.2-1-0.3-1.5-0.5c0.4-0.1,0.7-0.2,1.3-0.3
					c-0.6-0.3-1-0.5-1.4-0.7c0.2-0.1,0.3-0.2,0.4-0.2c0.8,0.2,1.5-0.5,1.4-1.2c0-0.2,0-0.4,0.1-0.5
					C286.6,142.8,287.4,140.7,287.4,138.1z"/>
				<path class="st0" d="M278.6,146L278.6,146C278.5,146,278.5,146,278.6,146z"/>
				<path class="st0" d="M229.8,152.4c0.5-0.6,0.9-1.1,1.3-1.7c-0.4-0.5-1.6-0.6-0.6-1.7c0.3-0.3-0.2-1.3-0.4-2
					c0-0.1-0.2-0.2-0.3-0.2c0.2-0.2,0.3-0.4,0.5-0.5c-1.2-0.4-1.3-0.9-0.4-2.2c-0.4,0.1-0.8,0.1-1.1,0.1c-0.1-0.8-0.2-1.6-0.3-2.4
					c0,0,0.5-0.2,1.1-0.5c-0.3-0.6-0.6-1.3-0.9-1.9c0,0-0.1,0.1-0.1,0.1c0-0.5-0.1-1-0.1-1.5c-0.1,0-0.3,0-0.4-0.1
					c0.3-0.2,0.6-0.4,1-0.8c-0.5,0-0.9-0.1-0.9-0.1c0.1-0.8,0.2-1.6,0.4-2.7c-0.6,0.5-1,0.9-1.4,1.2c-0.1-0.1-0.1-0.1-0.2-0.2
					c0.4-0.5,0.8-1,1.3-1.6c-0.4,0-0.7,0-1.3,0c0.5-0.3,0.8-0.5,1.2-0.9c-0.3,0-0.5-0.1-0.6-0.1c0-0.7,0-1.3,0-1.9
					c0-0.1-0.4-0.1-0.5-0.1c0.3-0.8,0.6-1.7,0.9-2.7c-1.2,0.7-2.3,1.4-3.5,1.9c-1.2,0.5-2.5,0.6-3.9,1c0.7-1.4-0.6-3.2-2.2-3.4
					c0.5,1.9,1.1,3.7,1.6,5.5c2.1,7.9,4.2,15.8,6.3,23.7c1.4,0,2.8,0,4.2,0c0.3-0.3,0.5-0.6,0.8-0.9c-1.1-0.8-1-2,0.1-3
					C230.9,152.6,230.4,152.5,229.8,152.4z"/>
				<path class="st0" d="M297.5,142.3c0,0-0.2-0.2-0.4-0.5c0.4,0,0.7,0.1,1.1,0.1c-0.2-0.4-0.4-0.7-0.6-1.1c1.4,0.2,1.7-1.2,1.5-1.8
					c-0.2-0.9,0.4-0.9,0.6-1.3c0.6-1.1,0.9-2.4,1.2-3.2c0.8-1.3,1.4-2.3,1.9-3.2c-3.3-1.1-6.5-2.2-9.5-3.2c0.3,0.7,0.9,1.6,1.4,2.6
					c0,0,0.2-0.3,0.5-0.8c0,0.5,0,0.6,0,0.7c-1.3,1.2-0.9,3.1-1.9,4.4c-0.1,0.1,0.3,0.5,0.5,0.8c-0.2,0-0.5,0-1.2,0
					c0.6,0.4,0.8,0.6,1.2,1c-0.5,0-0.8,0-1.1,0c0.2,0.5,0.4,0.9,0.4,1.3c0,0.2-0.5,0.3-0.6,0.4c-0.3,0.9-0.3,1.9-0.8,2.6
					c-0.5,0.7,1,2.3-1.1,2.3c0.4,0.3,0.6,0.4,1.1,0.8c-0.6,0-0.9,0-1.2,0.1c0,0.1-0.1,0.2,0,0.3c0.1,0.3,0.5,0.6,0.4,0.9
					c-0.5,1.7-0.8,3.5-1.7,4.9c-0.6,1-0.3,2.2-1.2,2.9c0.9,1.4-0.5,2.3-0.6,3.5c1.2,0,2.4,0,3.6,0c-0.1-0.1-0.2-0.2-0.3-0.3
					c0.5-0.3,1-0.6,1.8-1c-0.5-0.4-0.9-0.6-1-0.6c0.5-0.3,1.1-0.5,1.4-1c0.2-0.4,0-1,0-1.7c0,0,0.3,0,0.7,0.1
					c-0.1-0.7-0.1-1.3-0.2-1.9c0.5-0.4,1.2-0.8,1.9-1.4c-0.4-0.3-0.6-0.4-0.8-0.6c0.4-1.2,2.8-1.5,1.1-3.6c0.5,0.3,0.7,0.4,1.2,0.7
					c0-0.7-0.1-1.3,0-1.8C296.7,143.1,297.1,142.8,297.5,142.3z"/>
				<path class="st0" d="M276.3,132.3c0,0-0.3-0.3-0.6-0.4c0.3-0.1,0.5-0.2,0.6-0.3c-2.5-1-5-2-7.2-2.9c-1.1,9.1-2.2,18.6-3.4,28
					c1.7,0,3.4,0,5.1,0c-0.6-0.9-0.3-3.4,0.5-4.5c0.1-0.1-0.2-0.5-0.1-0.7c0.2-0.9,0-1.8,0.5-2.6c0.1-0.1-0.3-0.4-0.4-0.7
					c0.3-0.1,0.5-0.2,1-0.4c-0.6-0.2-0.9-0.3-1.2-0.4c0.1-0.1,0.1-0.2,0.2-0.4c0.4,0.3,0.9,0.5,1.6,1c-0.6-0.7-1-1.2-1.3-1.6
					c0,0,0.3,0,0.5,0c0.2,0,0.5,0,0.7,0.1c0.1-0.1,0.2-0.2,0.4-0.4c-0.3-0.1-0.6-0.2-1.2-0.4c0.5-0.1,0.8-0.2,1.3-0.3
					c-0.5-0.2-0.7-0.4-1.3-0.7c0.6,0,1.1,0,1.1-0.1c0.2-0.6,0.3-1.3,0.3-1.9c0.1-0.7-0.2-1.8,0.2-2.1c2-1.6,1-4.1,1.9-5.9
					c0.1-0.3-0.1-0.8-0.2-1.2C275.7,133.2,276,132.8,276.3,132.3z"/>
				<path class="st0" d="M168.2,127.6c0.6-0.7,1.1-1.4,2-2.4c-2.6,0.5-4.8,0.9-7.2,1.4c2.3,3,4.5,5.9,6.7,8.8
					c4.3,5.6,8.6,11.2,12.8,16.8c1.1,1.5,2.2,3,3.3,4.6c1,0,2,0,3,0c-3-4.3-5.9-8.6-8.9-12.9C176.1,138.4,172.2,133.1,168.2,127.6z"
					/>
				<path class="st0" d="M307.8,139.8c0.6-0.4,1.1-0.6,1.8-1c0-0.2,0-0.7,0-1.4c0.4,0.1,0.7,0.1,1.2,0.2c-0.3-0.4-0.4-0.7-0.6-1
					c0.1,0.1,0.2,0.1,0.3,0.2c0.7-1.2,1.5-2.5,2.3-3.8c0,0-0.2-0.3-0.4-0.5c0.6-0.5,1.3-1,2.3-1.8c-3.2-1.2-6.2-2.2-9.1-3.3
					c0,0.1-0.1,0.1-0.1,0.2c0.2,0.1,0.4,0.3,0.5,0.4c2.1,1.9,2.1,1.9,0.8,4.5c-0.5,0.9-0.6,1.9-1,3.1c0,0,0,0-0.1,0
					c-1.4,1.8-1.2,3.9-2.1,5.9c0,0-0.3,0.1-0.8,0.1c0.2,0.4,0.4,0.6,0.5,0.9c-0.1,0-0.2-0.1-0.4-0.1c-0.5,1.1-0.9,2.3-1.4,3.4
					c-0.1,0-0.3-0.1-0.4-0.1c0.1,0.3,0.3,0.5,0.5,0.9c-0.4-0.1-0.6-0.1-1-0.2c0.2,0.4,0.4,0.6,0.5,0.9c-0.3,0.2-1,0.6-0.9,0.7
					c0.9,2.8-1.5,4.6-2.2,6.9c-0.2,0.6-0.4,1.2-0.7,1.7c0.1,0,0.2,0,0.3,0c0.4-1.2,1.2-0.6,2.1-0.5c-0.3-0.3-0.4-0.6-0.7-0.9
					c0.3,0,0.6,0.1,0.9,0.1c-0.1-0.2-0.1-0.3-0.1-0.4c-0.4-0.7-0.1-1.2,0.6-1.4c0.4-0.1,0.8-0.7,1-1.2c0.2-0.3,0.1-0.7,0.2-1.2
					c0.6-0.1,1.8-1.9,2.1-3.2c0.1-0.6,0.3-1.3,0.7-1.7c0.6-0.5,1.1-0.9,0.9-1.9c0-0.2,0.7-0.6,1.5-1.1c-0.1,0-0.4-0.1-1.1-0.3
					c0.9-0.6,1.5-1.1,2.2-1.5C308.8,141,309,140.5,307.8,139.8z"/>
				<path class="st0" d="M305.8,135.6L305.8,135.6C305.8,135.6,305.8,135.6,305.8,135.6z"/>
				<path class="st0" d="M164.3,129.7c-0.7-1-1.4-2.1-2.2-3.1c0.5-0.6,1-1.1,1.5-1.7c0-0.1-0.1-0.3-0.1-0.4
					c-1.7,0.4-3.5,0.8-5.4,1.2c1.7,2,3.3,3.9,4.8,5.8c6.6,8.2,13.2,16.3,19.7,24.5c0.2,0.2,0.3,0.4,0.4,0.6c0.6,0,1.2,0,1.8,0
					c-1.2-1.5-2.5-2.9-3.7-4.5C175.6,144.7,170,137.2,164.3,129.7z"/>
				<path class="st0" d="M242.7,123.1c0,0.1,0,0.1,0,0.2c-0.3,0.1-0.7,0.1-1,0.2c-0.4,1.7,0.2,2.9,1.8,3.9c1.8,1.1,3.4,2.1,5.6,1.8
					c1.8-0.2,3.5-2,3.2-3.7c0-0.2-0.4-0.3-0.6-0.4c1.7-0.7-0.3-2.6,1.2-3.7c0.1,1.2,0.1,2.1,0.2,3.1c0.1,0,0.2,0,0.3,0
					c0-1.1,0-2.2,0-3.4c-0.2,0-0.6,0.1-1,0.2c0-0.1,0-0.3-0.1-0.4c0.4-0.1,0.8-0.1,1.4-0.2c0-1.3,0-2.6,0-4.1
					c0.5-0.1,0.9-0.2,1.8-0.4c-0.9-0.2-1.4-0.2-1.9-0.3c0-0.1,0-0.3,0-0.4c0.5-0.1,0.9-0.3,1.4-0.4c0-0.1,0-0.1,0-0.2
					c-0.5,0-1,0-1.9-0.1c0.4-0.9,1-1.5,1-2.2c0-0.6-0.6-1.3-1.3-1.8c0,0.5,0.1,1,0.1,1.5c0.3,0,0.6,0,1.1,0
					c-0.1,0.2-0.2,0.4-0.3,0.4c-1.3,0.3-1.2-0.6-1.2-1.4c0-0.2,0-0.5,0-0.5c1-0.9,1.9-1.7,2.9-2.6c-0.8,0.1-1.3,0.1-1.9,0.2
					c0-0.2-0.1-0.3-0.1-0.5c0.3-0.2,0.6-0.3,0.8-0.5c-0.3-0.4-0.5-0.8-0.9-1.4c0.8-0.2,1.4-0.3,2-0.4c0-0.1,0-0.2,0-0.4
					c-0.6,0-1.3,0-1.9,0c0-0.1,0-0.2,0-0.3c0.7-0.2,1.4-0.4,2.1-0.5c0-0.1,0-0.2-0.1-0.3c-0.7,0-1.3,0-2,0c0-0.1-0.1-0.2-0.1-0.2
					c0.3-0.2,0.7-0.3,1-0.5c-0.2-2.1-0.2-2.1-1.7-2.8c1.1-0.3,1.9-0.5,3-0.9c0,0,0.1-0.5,0.2-1.3c-5.3,2.4-10.4,2.3-15.6,0
					c0.5,8.4,0.9,16.4,1.3,24.4C242,123.2,242.4,123.1,242.7,123.1z"/>
				<path class="st0" d="M268.5,124.7c-0.2,1.1,0,1.9,1.2,2.4c1.1,0.4,1.9,1.3,3,1.7c3.4,1.4,3.5,1,4.4-2.3c0.1,0.4,0.2,0.6,0.3,0.8
					c0.8-0.5,0.8-0.5,1.2-4.1c0.3,0.1,0.5,0.2,0.9,0.3c-0.5-0.6-0.9-1.1-1.6-1.9c1.6,0.3,3.2,0,2.9-1.2c-0.2-0.9,1.5-2.7-0.9-2.9
					c0.5,0.1,1.1,0.2,1.6,0.3c-0.3-0.6-0.5-1.1-0.9-1.8c0.5,0,0.8,0,1.5-0.1c-0.7-0.4-1-0.6-1.3-0.8c0-0.1,0.1-0.1,0.1-0.2
					c0.6,0.2,1.1,0.3,1.7,0.5c0-0.1,0.1-0.2,0.1-0.2c-0.6-0.3-1.2-0.7-2.3-1.2c1-0.2,1.5-0.3,2.2-0.4c0.2-1.1,0.4-2.3,0.6-3.4
					c0.2,0,0.3,0.1,0.5,0.1c-0.2-0.2-0.5-0.4-0.8-0.8c0.4,0,0.7-0.1,1.1-0.1c-0.3-0.3-0.6-0.5-1.1-0.9c0.7,0.1,1.1,0.1,1.9,0.2
					c-0.8-0.5-1.3-0.8-1.6-0.9c0.3-0.5,0.7-0.9,0.8-1.4c0.1-0.3-0.3-0.7-0.5-1.1c0.4-0.1,0.9-0.2,1.5-0.2c0-0.1,0-0.2,0-0.3
					c-0.5-0.1-1.1-0.2-1.6-0.3c0.2-0.4,0.4-0.8,0.7-1.5c0.1,0.6,0.1,0.9,0.1,1.2c0.1,0,0.2,0,0.2,0.1c0.2-0.6,0.3-1.1,0.5-1.8
					c-0.3,0.1-0.6,0.2-1.3,0.3c1.1-0.5,1.8-0.9,2.5-1.2c0-0.2,0-0.4-0.1-0.5c-5,1.7-9.7,1.6-14.2-1.6c-0.5,4-1,7.6-1.5,11.3
					C269.8,115.4,269.2,120.1,268.5,124.7z"/>
				<path class="st0" d="M257.7,127.5c1.4,0.6,2.7,1.4,4.1,1.8c1.9,0.5,2.7-0.2,2.8-2.1c0.1-1.3,0.2-2.5,0.3-3.8
					c0.2,0,0.3,0,0.5,0.1c-0.1,1.4-0.3,2.7-0.4,4.1c1.2-2,0.9-4.1,0-6.1c0.2,0,0.4,0,0.6,0c0,0.3,0,0.7,0,1.1
					c0.2-0.1,0.4-0.2,0.4-0.3c0.1-1.1,0.9-2.4-0.4-3.4c-0.1-0.1-0.1-0.5,0-0.5c1.7-1.7,0.7-3.8,0.9-5.7c0-0.2,0-0.5,0-0.7
					c0-0.1,0.1-0.1,0.3-0.3c0.1,0.5,0.2,0.8,0.3,1.4c0.5-0.7,0.8-1.2,1.3-1.9c-2.4-0.5-0.6-2.5-1.6-3.6c0.3,0,0.6-0.1,0.9-0.1
					c0,1,0,2,0,3.1c0.1,0,0.2,0,0.3,0c0.3-2,0.7-4,1-6.1c-0.1,0-0.2-0.1-0.4-0.2c0.5-0.1,0.9-0.1,1.5-0.2c-0.6-0.2-0.9-0.3-1.5-0.5
					c0.4-0.2,0.6-0.3,0.8-0.4c-0.2-0.1-0.4-0.3-0.8-0.6c0.7-0.2,1.2-0.2,1.6-0.3c0-0.1,0-0.1,0-0.2c-0.4,0-0.8,0-1.5,0
					c0.4-0.3,0.7-0.5,1-0.8c-0.4-0.1-0.7-0.1-1.1-0.2c0.8-0.4,1.5-0.7,2.2-1c0-0.2,0-0.4-0.1-0.5c-4.6,1.7-9.2,2.1-13.9-0.8
					c0,3.9,0.1,7.3,0,10.7c-0.1,5.3-0.3,10.5-0.5,15.8C256.3,126.4,256.7,127.1,257.7,127.5z"/>
				<path class="st0" d="M268.9,104.5C269.1,104.5,269,104.5,268.9,104.5L268.9,104.5z"/>
				<polygon class="st0" points="268.9,104.5 268.9,104.5 268.9,104.5 				"/>
				<path class="st0" d="M224,101.8c0-0.4,0-0.7-0.1-1.3c1,1-1.1,2.6,0.9,3.2c-0.2,0.1-0.5,0.2-0.7,0.3c0.2,0.2,0.3,0.4,0.5,0.6
					c0.1,0.1,0.2,0.1,0.3,0.1c-1,1.5,0.5,2.8,0.3,4.2c0,0.1,0,0.2,0,0.3c0.4,0,0.7,0,1.4,0c-0.7,0.3-1,0.5-1.2,0.5
					c0.5,1.9,1,3.8,1.6,5.8c-0.2,0.1-0.5,0.3-0.9,0.4c0,0.1,0,0.1,0.1,0.2c0.3,0,0.6-0.1,0.8-0.1c0.5,1,1,1.9,1.7,3.2
					c-0.1-0.9-0.1-1.3-0.2-1.8c0.1,0,0.2,0,0.3-0.1c0.4,1.8,0.7,3.6,1.1,5.4c0.1,0,0.2,0,0.3,0c0-0.7,0-1.5,0-2.2c0.1,0,0.2,0,0.3,0
					c0.1,0.8,0.2,1.7,0.4,2.6c-0.4,0-0.7,0-1.1,0c0.1,0.7,0.3,1.3,0.4,2c0.1,0,0.2,0,0.2,0c0-0.5,0.1-1,0.1-1.6c0.1,0,0.2,0,0.3,0
					c0.3,1.2,0.5,2.4,0.7,3.3c0.7,0.5,1.5,0.9,1.6,1.3c0.2,1.2,1.1,1.2,1.8,1c0.8-0.3,1.6-0.8,2.1-1.5c0.4-0.5,0.2-1.4,0.3-2.1
					c-0.1,0-0.4-0.1-0.2-0.1c0.1-1.1,0.3-2,0.4-3c0-2.8,0-5.6,0-8.4c-0.6-0.2-1-0.3-1.3-0.4c0-0.1,0-0.1,0-0.2
					c0.3,0,0.6-0.1,0.9-0.1c0-1.8,0-3.6,0-5.6c-0.4,0-0.8,0-1.2,0c0-0.1,0-0.2,0-0.2c0.3-0.1,0.6-0.2,0.9-0.3
					c-0.1-0.9-0.2-1.9-0.3-2.8c0.2,0,0.3-0.1,0.5-0.1c0.1,0.6,0.2,1.2,0.3,1.8c0.5-1.6,0-2.8-1.6-3.5c1.2-0.1,2.2-0.3,3.3-0.4
					c0-0.1,0-0.2,0-0.2c-0.8,0-1.5,0-2,0c0.7-0.9,1.5-1.8,2.4-2.8c0-0.2-0.1-0.3-0.1-0.5c-5.2,3.2-10.5,2.2-16,0.5
					c0.3,1,0.5,1.7,0.7,2.4C223.9,101.9,223.9,101.9,224,101.8z"/>
				<path class="st0" d="M281.9,126.8c1.3,1.1,3,1.6,4.7,2.3c0.6,0.2,1.3,0.2,2,0.4c0.5-1.4,1-2.8,1.5-4.4c0,0.9,0,1.7,0,2.9
					c0.3-0.7,0.4-1.1,0.6-1.4c0.3-0.5,0.6-1,1-1.4c0.3-0.4,0.7-0.8,1.2-1.2c-0.4-0.5-0.7-1.2,0.9-1.1c-0.4-0.3-0.8-0.5-1.1-0.7
					c0.1-0.1,0.2-0.2,0.3-0.4c0.3,0.2,0.6,0.3,1,0.5c0.1-0.1,0.1-0.2,0.2-0.2c-0.6-0.5-1.1-0.9-1.7-1.4c0,0,0-0.1,0-0.1
					c0.7,0.3,1.3,0.6,2,0.9c0-0.1,0.1-0.1,0.1-0.2c-0.6-0.4-1.1-0.8-2-1.4c0.8,0.2,1.2,0.3,1.6,0.5c0.1-0.9,0.3-1.8,0.4-2.7
					c0.2,0,0.4-0.1,0.6-0.1c-0.2-0.2-0.5-0.4-0.7-0.7c0.5-0.2,1.1-0.4,1.7-0.7c-0.2-0.2-0.6-0.5-1.3-1c0.6,0.1,0.9,0.1,1.5,0.2
					c-0.5-0.5-0.8-0.7-1.1-0.9c0-0.1,0.1-0.1,0.1-0.2c0.4,0.2,0.9,0.4,1.3,0.6c0.1-0.1,0.1-0.2,0.2-0.2c-0.8-0.5-1.6-1-2.4-1.5
					c0-0.1,0-0.1,0.1-0.2c0.8,0.3,1.6,0.6,2.5,1c0.4-1.5,0-2.7-1.4-3.6c0.5,0.2,0.9,0.5,1.6,0.8c0.2-0.6,0.3-1.2,0.5-1.8
					c0,0,0.4,0.1,0.8,0.3c0-0.1,0.1-0.1,0.1-0.2c-0.7-0.5-1.3-1-2-1.4c0,0,0-0.1,0.1-0.1c0.6,0.3,1.3,0.5,1.9,0.8
					c0.1-0.1,0.1-0.2,0.2-0.2c-0.6-0.4-1.2-0.8-2.1-1.4c0.8,0.2,1.2,0.3,1.5,0.4c0.3-0.5,0.6-1,0.9-1.5c0,0-0.2-0.1-0.5-0.2
					c0.4-0.2,0.8-0.4,1.5-0.8c-0.7,0-1,0-1.6,0c0.7-0.3,1.2-0.5,1.6-0.7c0-0.2,0-0.4,0-0.6c-4.8,1.5-9.1,0.9-12.8-2.4
					c-1.7,7.6-3.3,14.8-5,22.1C282.1,124.6,281.5,126.4,281.9,126.8z"/>
				<path class="st0" d="M299.3,128.8c0.5,0.1,1.5-0.5,2-0.9c0.7-0.7,1.2-1.6,1.9-2.5c0.1,0.1,0.4,0.2,0.6,0.3
					c0.2-0.7,0.5-1.4,0.8-2.1c0.2,0.1,0.5,0.2,1,0.5c-0.4-0.5-0.6-0.9-0.9-1.2c0.1,0,0.2-0.1,0.2-0.1c1,0.7,1.2,0.1,1.3-0.8
					c0-0.4,0.2-0.7,0.3-1.1c0.1,0,0.3,0,0.4,0c-0.3-0.3-0.5-0.7-1-1.3c0.6,0.3,0.8,0.4,1.1,0.5c0.1,0,0.2,0,0.2-0.1
					c0.4-1,0.2-2.1,1.4-2.8c0.4-0.2,0.5-1.3,0.5-2c0-0.9,0-1.6,0.9-2.2c0.3-0.2,0.3-0.9,0.5-1.4c0.5-1.3,0.9-2.6,1.5-3.9
					c0.1-0.3,0.7-0.3,1.1-0.8c-4.4,0.8-8.4,0.5-11.6-3c-2.4,7.7-4.8,15.1-7.2,22.8C296,127.6,297.6,128.4,299.3,128.8z"/>
				<path class="st0" d="M209.4,103.9c0.5,0.4,1,0.8,1.6,1.3c0-0.3,0.1-0.6,0.1-1.2c0.3,0.7,0.4,1.1,0.5,1.5
					c-0.3,0.1-0.6,0.3-0.9,0.4c0.3,0.1,0.5,0.3,0.9,0.5c-0.2,0.1-0.4,0.3-0.7,0.4c-0.2,0.5,1.7,1.2,0.2,1.4c0.6,1.3,1.1,2.7,1.7,4
					c0.2-0.1,0.3-0.1,0.5-0.2c-0.5-1.5-0.9-3.1-1.4-4.6c1.3,2.1,1.9,4.4,2.7,6.7c0.2,0,0.4-0.1,0.6-0.1c-0.2,0.2-0.4,0.3-0.7,0.6
					c0.3,0.1,0.5,0.1,0.6,0.2c0.2,0,0.4,0.1,0.5,0.1c-0.7-2.1-1.4-4.2-2-6.3c0.1,0,0.3-0.1,0.4-0.1c0.4,1.2,0.8,2.4,1.2,3.6
					c0.2,0.4,0.6,0.7,0.8,1.1c0.5,2.1,1,4.2,1.5,6.3c0.1,0,0.3,0,0.4-0.1c-0.1-1.4-0.3-2.9-0.4-4.3c0.3,1.1,0.6,2.3,1,3.4
					c0.1,0.4,0.5,0.7,0.9,1.1c0,0-0.3,0.2-0.7,0.5c0.6,0.1,0.9,0.2,1.4,0.3c-0.3,0.2-0.6,0.4-0.9,0.6c1.5,0.4,1.4,1.8,1.8,2.9
					c0.1,0.2-0.3,0.6-0.5,1c0.2,0,0.4,0,0.5,0c0.6,1.6,1.2,3.1,1.8,4.6c2.2-0.5,2.2-0.5,2-3.2c-0.2-2.4-0.4-4.7-0.8-7.1
					c-0.3-1.4-0.3-2.9-0.7-4.1c-0.5-1.6-0.4-3.3-1-4.8c-0.2-0.6,0.2-1.5,0-2.1c-0.3-0.7-0.5-1.2-0.3-2c0.1-0.4-0.1-2.2-0.2-2.5
					c-0.2-0.5-0.5-0.8-0.8-1.3c0.4-0.4,0.9-1.1,1.4-1.7c0-0.1-0.1-0.3-0.1-0.4c-4.3,3-9,2.9-13.8,1.7c0,0.2-0.1,0.4-0.1,0.5
					c0.6,0.4,1.1,0.8,1.7,1.3C210,103.5,209.7,103.7,209.4,103.9z"/>
				<path class="st0" d="M310.7,127.4c0.4,0.1,0.8-0.2,1.1-0.4c0.5-0.1,0.9-0.3,1.4-0.4c-0.1-0.2-0.4-0.5-0.8-1
					c0.5,0.1,0.8,0.2,1.3,0.3c-0.5-0.6-0.9-1.1-1.5-1.7c0.7,0.3,1.1,0.5,1.7,0.8c-0.1-0.9-0.2-1.7-0.3-2.6c0.7,0.4,1.3,0.7,1.9,1.1
					c0.1-0.1,0.1-0.2,0.2-0.4c-0.4-0.3-0.8-0.6-1.2-1c0-0.1,0.1-0.1,0.1-0.2c0.5,0.2,0.9,0.4,1.6,0.8c-0.4-0.9-0.8-1.7-1.2-2.5
					c0.7-0.1,1.5,1.7,2.3,0.1c-0.2-0.3-0.4-0.6-0.7-1.2c0.6,0.2,0.9,0.2,1.1,0.3c0.3-0.6,0.7-1.1,1-1.7c-0.6-0.8-0.1-1.8,0.9-2.4
					c0.9-0.6,1.5-1.7,2.2-2.6c-0.4-0.3-0.7-0.5-0.9-0.6c-0.1-0.1-0.1-0.1-0.2-0.2c0.7-0.4,1.5-0.8,2.2-1.2c0-0.1,0-0.3,0-0.4
					c-3.3,0.1-6.6,0-8.8-2.9c-2.9,6.3-5.7,12.5-8.6,18.9C307.3,126.7,309,127.1,310.7,127.4z"/>
				<path class="st0" d="M201.9,108.6c-0.1,0-0.4,0.2-0.9,0.4c0.2,0.1,0.4,0.3,0.5,0.3c0.8-0.4,1,0.1,1.3,0.6
					c1.6,3.3,3.2,6.5,4.8,9.8c0.7,1.5,1.3,3,2.1,4.5c0.6,1.2,1.3,2.4,2,3.7c0.3-0.1,0.8-0.2,1.5-0.4c-0.4-0.3-0.6-0.4-0.9-0.6
					c0.2-0.1,0.4-0.2,0.6-0.4c-0.5-0.3-0.8-0.6-1.2-0.8c1.1-0.8,0.7-1.3-0.5-1.6c0.4-0.1,0.6-0.2,1.1-0.4c-0.6-0.1-0.9-0.2-1.4-0.4
					c0.4-0.2,0.7-0.3,1-0.5c-1.2-4.1-2.3-8.2-3.6-12.5c0,0,0.2-0.2,0.3-0.3c-0.5-0.2-0.5-0.3-0.3-0.8c0.4-0.9-0.5-2.8-1.4-3
					c0.3-0.2,0.5-0.5,0.8-0.7c-0.3-0.2-0.6-0.3-0.7-0.4c0.2-0.2,0.5-0.5,0.6-0.8c0-0.2-0.4-0.4-0.6-0.7c0.2-0.3,0.6-0.8,1-1.3
					c-0.1-0.1-0.2-0.3-0.3-0.4c-3.7,2.6-7.8,3.4-12.2,2.2c0,0.2,0,0.4-0.1,0.6c1.4,0.4,2.9,0.8,3.9,1.1
					C200.3,106.9,201.1,107.7,201.9,108.6z"/>
				<path class="st0" d="M319.7,125.9c2.3,0,4.8-2.3,5-4.6c0-0.4,0.3-0.8,0.7-1.1c0,0.3,0,0.6,0,0.9c0.1,0,0.3,0.1,0.4,0.1
					c0.2-0.8,0.5-1.6,0.8-2.6c0.5,0,1.4-0.1,0.9-1.4c0-0.1,0.5-0.2,0.7-0.4c0.8-1,1.5-2,2.3-3.1c-2.3-0.6-5.2,0.2-6.5-2.7
					c-2.8,5.1-5.6,10-8.3,15C317.3,125.9,318.5,125.9,319.7,125.9z"/>
				<path class="st0" d="M189.2,108.5c0.3,0.8,0.6,1.5,0.9,2.3c-0.4,0.2-0.8,0.4-1.2,0.5c0,0.1,0,0.2,0.1,0.3
					c0.8-0.2,1.6-0.3,2.4-0.5c0,0,0,0.1,0.1,0.1c-0.3,0.1-0.6,0.3-1.1,0.4c0.5,0.6,0.4,1.9,1.8,1.2c-0.3,0.2-0.6,0.4-0.7,0.4
					c0.6,0.9,1.2,1.8,1.8,2.6c0.3,0.5,0.7,0.9,1.2,1.5c0,0-0.1,0.2-0.4,0.8c0.6-0.2,0.9-0.4,1.4-0.5c1.1,2,2.2,4.1,3.3,6.2
					c0.5,0.9,1,1.9,1.5,2.8c0.1,0.2,0.5,0.3,0.8,0.4c0.1-0.3,0.3-0.6,0.3-0.9c-0.5-1.7-1-3.4-1.6-5.1c-0.9-2.7-1.9-5.4-2.9-8
					c-0.2-0.4-0.5-0.8-0.9-1.2c0.1-0.1,0.2-0.3,0.4-0.5c-1.2-0.5-0.5-1.8-1-2.6c-0.1-0.2-0.3-0.3-0.4-0.5c-0.1-0.7-0.3-1.4-0.4-2.2
					c-0.1,0-0.2,0.1-0.3,0.1c0.2-0.5,0.3-0.9,0.5-1.4c-0.1-0.1-0.2-0.2-0.3-0.3c-3.1,2.9-6.7,3.8-10.7,3
					C185.3,108.6,187.1,109.1,189.2,108.5z"/>
				<path class="st0" d="M177.7,112.3c0.1,0,0.2,0,0.3,0c0.1-0.3,0.2-0.6,0.4-1.1c0.3,1.8,0.9,0.1,1.3,0.3c0.2,0.6,0.4,1.2,0.7,1.8
					c-0.3,0.1-0.7,0.2-1,0.3c2.1,0.1,2.3,2,3.1,3.2c1,1.5,1.9,3,2.9,4.8c0.2-0.4,0.3-0.7,0.4-0.9c0.1,0.1,0.2,0.2,0.3,0.2
					c-0.2,0.4-0.4,0.8-0.7,1.3c0.4-0.1,0.8-0.1,1.3-0.2c-0.4,0.5-0.6,0.7-0.9,1.2c0.6-0.1,1-0.2,1.7-0.4c-0.5,0.5-0.7,0.8-1.2,1.3
					c0.6-0.1,0.9-0.2,1.2-0.3c0.4,0.5-0.4,1.3,0.9,1.7c0.6,0.2,1,1.4,1.5,2.1c0.2-0.1,0.4-0.2,0.5-0.3c-1.5-3.4-3.3-6.7-4.6-10.2
					c-1.2-3.2-3.2-6-3.4-9.8c-2.4,2.6-5.4,3.3-8.7,3.2c0,0.1,0,0.3,0,0.4c1.2,0.2,2.5,0.4,3.8,0.6
					C177.7,111.6,177.7,112,177.7,112.3z"/>
				<path class="st0" d="M324.6,126.3c0.5-1.1,1.4-1.6,2.5-1.4c1.6,0.2,3.2,0.3,3.7-1.9c0.2,0.4,0.3,0.5,0.5,0.8
					c1.9-2,2.7-4.8,5.1-6.3c-2.2-0.9-4-1.6-5.8-2.3c-2.4,3.7-5,7.6-7.7,11.7C323.7,127.4,324.2,127.2,324.6,126.3z"/>
				<path class="st0" d="M172,117.1c0.1,0.3,0.7,0.5,1,0.8c1,1,2.4,1.6,2.5,3.5c0.1,0.8,1.5,1.6,2.4,2.3c0.1-0.1,0.2-0.3,0.2-0.4
					c-1.9-4-3.8-8-5.7-11.9c-1.3,2.2-4,1.9-6.3,2.7c0.7,0.1,1.4,0.1,2,0.3C169.8,114.8,171.5,115,172,117.1z"/>
				<path class="st0" d="M330.9,126.8c-1.5-0.4-3-0.7-4.6-1.1c0,0.1-0.1,0.2-0.1,0.3c0.3,0.2,0.6,0.5,0.9,0.7
					c1.2,0.8,1.2,2.4,0.3,3.5c-0.2,0.3-0.3,0.7-0.4,1.1c-0.1,0.9-0.6,1.5-1.1,2.2c-0.2,0.3-0.2,0.7-0.2,1.1c0.2,0.1,0.4,0.1,0.5,0.2
					c0.9-1.3,1.7-2.6,2.6-3.9c0.2-0.2,0.5-0.3,0.7-0.5c0.4-0.4,0.8-0.7,1-1.2c0.3-0.7,0.8-1.1,1.4-1.2c1.2-0.2,1.4-1,1.5-2.1
					C332.8,127.3,331.9,127.1,330.9,126.8z"/>
				<path class="st0" d="M331.1,125.4c0,0.1,0.1,0.2,0.1,0.4c0.5-0.3,0.9-0.5,1.4-0.8c0.6-0.4,1.2-0.9,1.9-1.2
					c1-0.4,2.1-0.3,2.7-1.7c0.3-0.8,1.8-1.1,2.8-1.7c-1.3-0.7-2.4-1.4-3.6-2C334.7,120.6,332.9,123,331.1,125.4z"/>
				<path class="st0" d="M321.6,131.5c0.2-0.4,0.4-0.9,0.6-1.3c-0.5-0.2-1-0.5-1.5-0.7c-0.1,0.3-0.1,0.5-0.2,0.8c0,0.1,0,0.3,0,0.4
					c-0.3,0-0.7-0.1-1.2-0.1c0.2,0.5,0.3,0.9,0.5,1.3c0,0.7,0.1,1.4-0.9,1.5c-0.3,0-0.7,0.4-0.7,0.7c-0.2,1-0.3,2-0.5,3
					c-0.4-0.1-0.8-0.4-1.2,0.3c-0.5,1.2-1.2,2.2-1.8,3.3c0.3,0.3,0.6,0.5,0.8,0.7c1.1-1.1,2.1-2.2,3.1-3.3c0.1-0.1-0.1-0.4-0.1-0.6
					c0.5-0.5,1-0.9,1.4-1.4c0.8-1.1,1.5-2.3,2.2-3.5C322.3,132.2,322.2,131.7,321.6,131.5z"/>
				<path class="st0" d="M167.6,121.2c0.2,0.2,0.4,0.3,0.7,0.4c0-0.2,0-0.5-0.1-0.7c-0.4-1-0.8-1.9-1.2-2.9c-0.4-1-0.8-1.9-1.2-2.7
					c-1.2,0.6-2.4,1.1-3.9,1.8C164.8,117.2,165.8,119.8,167.6,121.2z"/>
				<path class="st0" d="M325.5,126.8c-0.1,0.3-0.3,0.6-0.3,0.8c-0.3,1.1-0.9,1.3-1.9,0.9c-1.7-0.6-3.4-1.2-5.1-1.7
					c-0.5-0.2-1.1-0.1-1.7-0.2c0,0.2-0.1,0.3-0.1,0.5c1.7,0.8,3.4,1.6,5.2,2.3c0.8,0.3,1.4,0.9,2.5,0.7
					C325.2,129.6,326.2,127.9,325.5,126.8z"/>
				<path class="st0" d="M333.8,124.4c-0.1,0.2-0.1,0.4-0.2,0.6c0.8,0.5,1.5,1,2.4,1.6c0,0.1-0.1,0.4-0.3,1.1
					c0.7-0.5,1.1-0.8,1.6-1.2c0,0.3,0,0.5,0,0.7c0.9-0.4,1.8-0.8,2.7-1.3c0-0.1,0-0.2,0-0.3C338,125.2,335.9,124.8,333.8,124.4z"/>
				<path class="st0" d="M314.2,142.1c-0.8,1.5-1.6,2.8-2.5,4.5c0.8-0.1,1.2-0.2,1.5-0.2c0.3-0.7,0.5-1.2,0.7-2
					c0.1,0-0.2-0.1-0.4-0.2c0.6-0.3,1.2-0.5,1.9-0.8C315,142.9,314.7,142.6,314.2,142.1z"/>
				<path class="st0" d="M161.2,117.8c-0.8,0.8-1.6,1.6-2.5,2.5c1,0.1,2.1,0.3,3.2,0.5C161.6,119.6,161.4,118.6,161.2,117.8z"/>
				<path class="st0" d="M313.2,129.4c0.6,0.3,1.1,0.5,1.6,0.7c0.3-1.1,1.6-1.9,0.5-3.3C314.6,127.7,313.9,128.5,313.2,129.4z"/>
				<path class="st0" d="M227,117.6c0.6,2,1.3,4.1,1.9,6.1c0.1,0,0.1,0,0.2,0c-0.2-1.4,0.2-3.3-0.6-4.2
					C227.9,118.9,227.8,118.1,227,117.6z"/>
				<path class="st0" d="M321.9,138.8c1.6,1.3-1.6,1.2-0.7,2.5c0.6-0.5,1.3-1.1,2-1.6c-0.1-0.4-0.2-1-0.3-1.6
					C322.5,138.4,322.2,138.6,321.9,138.8z"/>
				<path class="st0" d="M304.2,127.1c-0.7,1-1.3,1.9-1.9,2.8C303.6,130.4,304.4,129.3,304.2,127.1z"/>
				<path class="st0" d="M308.9,150.9c0.3,0.2,0.7,0.3,0.7,0.3c0.5-0.7,1-1.4,1.4-1.9c-0.3,0-0.9-0.1-1.3-0.2
					C309.4,149.7,309.2,150.2,308.9,150.9z"/>
				<path class="st0" d="M277.2,131c0.6-1,1.3-2.1,1.9-3.1c-0.2-0.1-0.3-0.2-0.5-0.3c-0.6,1-1.3,2-1.9,3.1
					C276.9,130.8,277.1,130.9,277.2,131z"/>
			</g>
		</g>
		<g>
			<g>
				<path class="st1" d="M212.9,150.7L212.9,150.7C212.8,150.8,212.8,150.8,212.9,150.7z"/>
				<path class="st1" d="M305.9,135.6L305.9,135.6C305.9,135.6,305.9,135.6,305.9,135.6z"/>
				<path class="st1" d="M340.7,123c-0.2-0.9,0.6-2,1-3.2c-0.4-0.2-0.9-0.6-1.5-0.8c-1.1-0.5-1.8-1.1-2.2-2.3
					c-0.1-0.4-0.8-0.8-1.3-1c-0.8-0.2-1.6-0.1-2.4-0.4c-0.7-0.3-1.5-0.9-1.8-1.5c-0.4-1-0.9-1.4-2-1.5c-0.7,0-1.5-0.2-2.2-0.3
					c-1.2-0.1-2.2-0.6-2.9-1.7c-0.7-1.2-1.7-1.7-3.1-1.5c-2.9,0.4-5.4-0.5-7.5-2.7c-0.4-0.5-1.4-0.8-2-0.7c-4.1,0.8-7.7,0.1-11-2.6
					c-0.4-0.4-1.2-0.4-1.8-0.4c-1.1,0-2.2,0.1-3.3,0.4c-2.1,0.5-4.2,0.2-5.9-1.1c-2.7-1.9-5.5-2.4-8.6-1.5c-2.7,0.8-5.2,0.2-7.5-1.1
					c-2.1-1.2-4.2-1.5-6.5-0.6c-3.2,1.2-6.3,1-9.3-0.4c-1.7-0.8-3.4-1-5.2-0.3c-4.1,1.7-8.1,1.1-12.2,0c-1-0.3-2.4-0.4-3.3,0.1
					c-4.4,2.1-8.9,1.7-13.4,0.5c-1.4-0.4-2.7-0.2-3.9,0.6c-3.2,1.9-6.6,2.3-10.1,1.5c-1.8-0.4-3.6-0.4-5.2,0.9c-3,2.3-6.5,2-10,1.6
					c-0.8-0.1-1.9,0.1-2.5,0.6c-2.6,2.3-5.6,3.1-9,2.3c-1.2-0.3-2.2,0-3.1,1c-1.8,2.1-4.3,2.5-6.9,2.3c-1.3-0.1-2.3,0.3-3,1.5
					c-0.6,1.1-1.7,1.5-2.9,1.6c-0.9,0.1-1.8,0.2-2.7,0.4c-0.4,0.1-1,0.5-1.1,0.8c-0.4,1.6-1.7,2-3.1,2.2c-1.3,0.2-2,0.6-2.4,2
					c-0.3,1-1.6,1.7-2.5,2.5c0.6,0.8,1.8,1.8,1.8,2.7c0,0.9-1.2,1.8-2.1,3c8.2,10.1,16.5,20.5,24.9,30.8c0.6,0,1.2,0,1.8,0
					c-0.1-0.2-0.2-0.4-0.4-0.6c-6.6-8.2-13.1-16.3-19.7-24.5c-1.6-1.9-3.1-3.8-4.8-5.8c1.9-0.4,3.6-0.8,5.4-1.2
					c0,0.1,0.1,0.3,0.1,0.4c-0.5,0.5-1,1.1-1.5,1.7c0.8,1.1,1.4,2.1,2.2,3.1c5.6,7.5,11.2,15,16.9,22.4c1.2,1.5,2.4,3,3.7,4.5
					c0.3,0,0.6,0,0.9,0c-1.1-1.5-2.2-3.1-3.3-4.6c-4.3-5.6-8.5-11.2-12.8-16.8c-2.2-2.9-4.3-5.7-6.7-8.8c2.4-0.5,4.6-0.9,7.2-1.4
					c-0.9,1-1.5,1.7-2,2.4c4,5.5,7.9,10.8,11.7,16.2c3,4.3,5.9,8.6,8.9,12.9c0.4,0,0.8,0,1.2,0c-1.2-1.8-2.4-3.5-3.7-5.3
					c-4.5-6.2-9-12.4-13.5-18.6c-1.3-1.8-2.6-3.5-4-5.3c2.6-0.5,5-0.9,7.5-1.4c-0.2,1-0.4,1.8-0.6,3.1c3.1-0.8,5.7-1.6,8.3-2.2
					c0.2-0.1,0.6,0.2,0.9,0.2v0c-0.6,0.7-1.3,1.4-2,2.1c5.7,9.1,11.4,18.3,17.1,27.4c0.7,0,1.4,0,2.1,0c-1.5-2.5-3.1-5-4.6-7.5
					c-0.1,0.1-0.3,0.1-0.4,0.2c0.3,0.6,0.7,1.3,1,1.9c-0.1,0-0.1,0.1-0.2,0.1c-0.4-0.6-0.9-1.2-1.3-1.8c-3.7-5.8-7.4-11.5-11.2-17.3
					c-1.1-1.7-1.7-3.3-0.6-5.2c0.8,0.8,1.6,1.6,2.7,2.6c2-0.7,4.4-1.7,7.3-2.8c-0.5,0.6-0.7,0.8-0.8,1.1c-0.2,0.6-0.7,1.3-0.5,1.8
					c0.4,1.1,1,2.2,1.7,3.1c0.8,1,0.1,2.9,1.9,3.3c-0.3,0.2-0.5,0.5-0.8,0.8c1.3,0.5,2.3,1.2,2,2.6c-0.3,1.2,0.3,1.3,1.4,0.9
					c-0.4,0.6-0.7,0.9-1.2,1.6c0.7-0.3,1.1-0.4,1.6-0.6c-0.3,0.6-0.5,1-0.9,1.7c0.6-0.3,0.9-0.5,1.2-0.6c0,0.1,0.1,0.1,0.1,0.2
					c-0.2,0.3-0.5,0.6-0.9,1.1c0.6-0.2,0.9-0.3,0.9-0.3c0.1,0.8,0.3,1.6,0.4,2.3c0.4-0.1,0.8-0.2,1.1-0.3c0,0.1,0.1,0.1,0.1,0.2
					c-0.3,0.2-0.5,0.4-0.8,0.7c0.1-0.1,0.3-0.1,0.4-0.2c0.5,0.7,1.4,1.5,1.3,2c-0.5,1.6,0.8,1.7,1.4,2.4c-0.1,0.1-0.3,0.1-0.4,0.2
					c0.8,1.7,1.7,3.4,2.5,5.1c0.2-0.1,0.4-0.2,0.7-0.3c-0.1,0.4-0.2,0.6-0.3,0.8c0.5,0,1,0,1.5,0c0-0.1-0.1-0.3-0.1-0.4
					c-4.2-8.1-8.4-16.3-12.5-24.4c-0.8-1.5-1.4-3.2-0.4-5.1c0.8,0.9,1.5,1.7,2.3,2.6c-0.7,0.4-1.2,0.7-1.8,1
					c0.1,0.2,0.1,0.3,0.2,0.5c3.2-1,6.4-2.1,9.8-3.2c-0.3,0.7-0.6,1.4-1,2.2c1.2,0.2,1.6,0.7,0.4,1.8c0.5,0,0.8,0,1.4,0
					c-0.5,0.4-0.8,0.6-1.3,0.9c0.6,0.1,0.9,0.1,1.3,0.1c-0.2,0.3-0.4,0.5-0.7,0.7c0.4,0.1,0.7,0.1,0.9,0.1c-0.1,0.1-0.2,0.1-0.3,0.2
					c0.2,0.6,0.5,1.2,0.8,2c-0.4-0.3-0.6-0.4-0.9-0.7c0.2,0.5,0.3,0.8,0.4,1.2c0.4-0.2,0.7-0.3,0.9-0.4c0,0.1,0.1,0.1,0.1,0.2
					c-0.3,0.3-0.6,0.6-0.6,0.7c0.6,0.4,1,0.8,2,1.5c-0.8,0.1-1.1,0.2-1.5,0.3c0.1,0.1,0.2,0.3,0.4,0.4c0.3-0.1,0.6-0.1,0.9-0.2
					c-0.3,0.7-0.6,1.3-0.9,1.9c0.1,0,0.1,0.1,0.2,0.1c0.3-0.3,0.6-0.6,1.1-1.3c0,1.3,0,2.2,0,3.2c0.2-0.3,0.4-0.5,0.6-0.8
					c0.2,1,0.2,2.1,0.7,2.7c0.6,0.7,0.3,0.8-0.1,1.2c0,0,0,0.1,0,0.2c0.3,0,0.6-0.1,1.3-0.2c-0.6,0.5-0.9,0.7-1.4,1.1
					c0.6-0.1,0.9-0.2,1.2-0.3c0.4,1.5,0.8,2.8,1.3,4.3c0.1,0,0.3,0,0.5,0c-0.3,0.4-0.5,0.7-0.7,1c0.4,0.1,0.6,0.1,0.9,0.2
					c-0.1,0.4-0.3,0.7-0.4,1c0.3,0,0.6,0.1,1.1,0.2c-0.6,0.4-0.9,0.6-1.2,0.8c0,0.1,0.1,0.1,0.1,0.2c0.3-0.1,0.7-0.2,1.1-0.3
					c0,1,1.4,2-0.2,2.8c0.7,0,1.4,0,2.1,0c-0.1-0.3-0.1-0.7-0.2-1c-2.9-8.3-5.9-16.5-8.8-24.8c-0.4-1.2-0.7-2.4-1-3.6
					c0.1-0.1,0.2-0.1,0.4-0.2c0.8,0.9,1.6,1.7,2.4,2.6c-0.3,0.3-0.6,0.5-0.9,0.8c0.1,0.2,0.1,0.3,0.2,0.5c3.1-0.9,6.1-1.9,9.3-2.8
					c-0.2,0.4-0.4,0.9-0.5,1.1c0.3,0.8,0.5,1.3,0.8,2c-0.6,0.1-0.9,0.2-1.3,0.2c0.5,0.1,1,0.2,1.4,0.3c0,0.1,0,0.2,0.1,0.3
					c-0.6,0.2-1.2,0.5-2.2,0.9c1.1-0.1,1.7-0.2,2.4-0.2c0,0.1,0,0.2,0,0.3c-0.7,0.2-1.4,0.4-2,0.6c0,0.1,0.1,0.1,0.1,0.2
					c0.7-0.1,1.3-0.1,2-0.2c0,0.1,0,0.2,0.1,0.3c-0.6,0.2-1.3,0.4-2.3,0.7c1.1,0,1.8,0,2.8,0c-0.9,0.4-1.5,0.6-2.3,0.9
					c0.9-0.1,1.5-0.1,2.4-0.1c-0.4,0.4-0.7,0.6-1.2,1c0.7,0,1-0.1,1.6-0.1c-0.4,0.3-0.7,0.6-1.1,0.9c0.5,0,0.8,0.1,1.6,0.1
					c-1.2,0.5-1.9,0.9-2.7,1.2c0,0.1,0.1,0.1,0.1,0.2c0.8-0.2,1.6-0.4,2.4-0.6c0,0.1,0.1,0.2,0.1,0.3c-0.7,0.3-1.4,0.6-2.1,0.9
					c0,0.1,0,0.1,0.1,0.2c0.7-0.1,1.4-0.2,2.1-0.3c0,0.1,0,0.2,0.1,0.3c-0.6,0.2-1.2,0.5-1.9,0.7c0,0.1,0,0.1,0,0.2
					c0.7-0.1,1.4-0.2,2.1-0.2c0,0.1,0,0.2,0,0.3c-0.6,0.3-1.3,0.5-1.9,0.8c0,0.1,0,0.1,0.1,0.2c0.7-0.1,1.4-0.2,2.1-0.3
					c0,0.1,0,0.2,0.1,0.3c-0.7,0.3-1.5,0.6-2.2,0.9c0,0.1,0.1,0.2,0.1,0.3c0.4-0.2,0.8-0.3,1-0.4c0.6,0.6,1,1,1.4,1.4
					c-0.4,0.2-0.8,0.4-1.4,0.7c0.8,0,1.3,0,1.8,0c0,0.1,0.1,0.2,0.1,0.2c-0.3,0.2-0.6,0.3-1.2,0.7c0.8,0.1,1.1,0.1,1.5,0.1
					c-0.4,0.3-0.6,0.6-0.9,0.8c0.1,0.1,0.1,0.2,0.2,0.3c0.3-0.1,0.6-0.1,0.9-0.2c0,0.1,0,0.2,0.1,0.2c-0.4,0.2-0.8,0.4-1.2,0.5
					c0,0.1,0,0.2,0.1,0.2c0.4,0,0.8,0,1.2-0.1c0,0.1,0,0.1,0,0.2c-0.4,0.2-0.7,0.3-1.1,0.5c0,0.1,0.1,0.2,0.1,0.3
					c0.4,0,0.8,0,1.1-0.1c1,1.5-0.9,1.2-1.4,1.9c0.7-0.1,1.3-0.1,1.8-0.2c0,0.1,0,0.1,0,0.2c-0.5,0.2-1,0.4-1.9,0.8
					c1-0.1,1.6-0.1,2.2-0.2c0,0.1,0,0.2,0.1,0.3c-0.8,0.2-1.7,0.4-2.5,0.6c0,0,0,0.1,0,0.1c0.9,0,1.7-0.1,2.9-0.1
					c-0.7,0.4-1.2,0.6-2,1c0.9-0.1,1.3-0.1,1.8-0.2c0,0.1,0,0.2,0,0.3c-0.4,0.2-0.9,0.4-1.3,0.7c0,0.1,0.1,0.2,0.1,0.2
					c0.5-0.1,0.9-0.2,1.4-0.3c0,0.1,0.1,0.2,0.1,0.3c-0.5,0.2-1,0.5-1.9,0.8c1-0.1,1.5-0.1,2.3-0.2c-0.4,0.4-0.7,0.7-1.1,1.1
					c0.5-0.1,0.8-0.1,1.5-0.2c-0.6,0.5-0.9,0.7-1.2,0.9c0,0.1,0.1,0.1,0.1,0.2c0.3-0.1,0.6-0.2,0.9-0.3c0,0.4,0,0.7,0,0.9
					c0.6,0,1.2,0,1.8,0c-2.1-7.9-4.2-15.8-6.3-23.7c-0.5-1.8-1-3.6-1.6-5.5c1.6,0.3,2.8,2.1,2.2,3.4c1.4-0.3,2.7-0.5,3.9-1
					c1.2-0.5,2.3-1.2,3.5-1.9c-0.3,1-0.6,1.9-0.9,2.7c0.1,0,0.5,0.1,0.5,0.1c0.1,0.6,0,1.2,0,1.9c0.1,0,0.3,0,0.6,0.1
					c-0.5,0.3-0.8,0.5-1.2,0.9c0.5,0,0.9,0,1.3,0c-0.5,0.6-0.9,1.1-1.3,1.6c0.1,0.1,0.1,0.1,0.2,0.2c0.4-0.3,0.7-0.6,1.4-1.2
					c-0.2,1.1-0.3,1.9-0.4,2.7c0,0,0.3,0,0.9,0.1c-0.5,0.4-0.8,0.6-1,0.8c0.1,0,0.3,0,0.4,0.1c0,0.5,0.1,1,0.1,1.5
					c0,0,0.1-0.1,0.1-0.1c0.3,0.6,0.6,1.2,0.9,1.9c-0.6,0.3-1,0.4-1.1,0.5c0.1,0.9,0.2,1.6,0.3,2.4c0.3,0,0.6-0.1,1.1-0.1
					c-1,1.2-0.8,1.8,0.4,2.2c-0.2,0.2-0.3,0.4-0.5,0.5c0.1,0.1,0.3,0.1,0.3,0.2c0.2,0.7,0.7,1.8,0.4,2c-1,1.1,0.2,1.2,0.6,1.7
					c-0.4,0.5-0.8,1.1-1.3,1.7c0.6,0.1,1.1,0.2,1.5,0.3c-1.1,1-1.1,2.2-0.1,3c-0.3,0.3-0.5,0.6-0.8,0.9c1,0,2,0,3,0
					c-0.2-0.9-0.4-1.7-0.6-2.6c-1.4-7.9-2.8-15.9-4.2-23.8c-0.1-0.8-0.2-1.7-0.4-3c2.1,1.7,3.5,4.1,6,3.5c2.1-0.5,4-1.7,6.1-2.6
					c-0.2,0.3-0.5,0.6-0.7,1c-0.4,0.6-1.1,1.2-1.2,1.9c-0.2,0.9-0.1,1.9-0.1,2.8c-1,0.2-1.8,0.5-2.7,0.7c0,0,0,0.1,0.1,0.1
					c0.9,0,1.8,0,3,0c-0.7,0.4-1.2,0.7-1.6,1c0,0.1,0.1,0.1,0.1,0.2c0.5,0,1-0.1,1.4-0.1c0,0.1,0,0.1,0.1,0.2
					c-0.7,0.3-1.3,0.6-2.3,1c0.8,0,1.2,0,1.5,0c0,0.5,0.1,1,0.1,1.4c-0.4,0.1-0.8,0.2-1.1,0.3c0,0.1,0,0.2,0,0.2
					c0.4,0,0.9,0.1,1.7,0.2c-0.7,0.3-1.1,0.5-1.5,0.6c0,0.1,0,0.2,0.1,0.2c0.4,0,0.8,0,1.1,0.1c0,0.1,0,0.2,0,0.2
					c-0.7,0.1-1.4,0.3-2.3,0.5c0.7,0.2,1.1,0.3,1.6,0.5c0,0.1,0,0.2,0,0.3c-0.3,0.1-0.6,0.2-1,0.3c0.5,0.2,0.9,0.4,1.3,0.6
					c-0.4,0.3-0.6,0.4-1,0.7c1.1,0,1.9,0,3,0c-0.4,0.3-0.6,0.6-0.7,0.6c-1.3-0.6-1.2,0.4-1.2,1.1c-0.1,1.5-0.2,3.1-0.3,4.7
					c0.4,0,0.7,0,1.1,0c0,0.1,0,0.2,0.1,0.2c-0.4,0.2-0.7,0.4-1.5,0.8c1.1,0,1.7,0,2.7,0c-0.7,0.4-1,0.5-1.3,0.7
					c0,0.1,0.1,0.2,0.1,0.2c0.3,0,0.5,0,1.2,0c-0.6,0.4-0.9,0.6-1.3,0.9c0.4,0.1,0.6,0.2,0.9,0.3c-0.1,0.1-0.2,0.1-0.4,0.2
					c0.1,0.3,0.2,0.7,0.3,1c-0.3,0.2-0.7,0.4-1.1,0.6c0,0.1,0,0.1,0.1,0.2c0.3-0.1,0.7-0.1,1.2-0.2c0,1,0,1.8,0,2.6
					c1.2,0,2.4,0,3.6,0c-0.1-0.4-0.2-0.8-0.3-1.2c-0.6-9.3-1.2-18.6-1.8-27.8c4.1,3.3,8.4,5,13,0.2c-1.1,2-2.3,3.6-4.6,4.7
					c1.1-0.2,1.8-0.3,2.6-0.4c0,0.1,0,0.3,0.1,0.4c-0.8,0.2-1.5,0.4-2.3,0.7c0,0.1,0,0.1,0,0.2c0.6,0,1.2-0.1,2-0.1
					c-0.4,0.8-0.7,1.4-1,2c0.1,0,0.4,0,1.2,0.1c-0.8,0.4-1.1,0.5-1.7,0.8c0.6,0.1,0.9,0.1,1.3,0.2c0,0.1,0,0.2,0,0.2
					c-0.6,0.2-1.2,0.4-1.8,0.6c0,0.1,0.1,0.2,0.1,0.2c0.5-0.1,1.1-0.2,1.7-0.3c0,0.6-0.1,1.2-0.1,1.6c-0.8,0.2-1.5,0.4-2.2,0.5
					c0,0.1,0,0.2,0,0.2c0.7-0.1,1.5-0.1,2.2-0.2c0,0.1,0,0.2,0,0.2c-0.4,0.2-0.7,0.4-1.3,0.6c0.5,0.1,0.9,0.2,1.4,0.4
					c-0.6,0.3-1,0.5-1.4,0.6c0,0.1,0.1,0.2,0.1,0.3c0.3,0,0.7-0.1,1-0.1c0,0.6,0,1.1,0,1.5c-0.6,0.1-1.1,0.2-1.7,0.3
					c0,0.1,0,0.2,0,0.3c0.6,0,1.1,0,1.7,0c0,0.1,0.1,0.2,0.1,0.3c-0.6,0.2-1.1,0.4-1.9,0.7c0.8,0.1,1.3,0.1,1.8,0.2c0,0.5,0,1,0,1.4
					c-0.8,0.1-1.5,0.2-2.3,0.3c0,0.1,0,0.1,0,0.2c0.7,0,1.5,0.1,2.6,0.2c-0.7,0.3-1.1,0.5-1.4,0.6c0,0.1,0,0.2,0.1,0.3
					c0.3,0,0.7,0,1,0c0,0.1,0,0.2,0.1,0.3c-0.7,0.2-1.4,0.4-2.2,0.6c0,0,0,0.1,0.1,0.1c0.7,0,1.4,0,2.1,0c0,0.1,0,0.2,0.1,0.3
					c-0.6,0.2-1.3,0.3-1.9,0.5c0,0.1,0,0.1,0.1,0.2c0.5,0,1.1,0,1.7,0c-0.2,1.1,0.7,2.4-1.1,3.1c0.3,0,0.7,0,1,0c0,0.1,0,0.2,0,0.3
					c-0.8,0.1-1.7,0.3-2.5,0.4c0,0.1,0,0.1,0,0.2c0.8,0,1.6,0.1,2.4,0.1c0,0.1,0,0.2,0,0.3c-0.7,0.1-1.3,0.2-2,0.2
					c0,0.1,0,0.2,0,0.2c0.4,0.1,0.8,0.1,1.2,0.2c0,0.1,0,0.2,0,0.2c-0.4,0.1-0.8,0.3-1.2,0.4c0,0.1,0.1,0.2,0.1,0.2
					c0.7,0,1.3-0.1,2-0.1c0,0.1,0,0.2,0,0.2c-0.4,0.2-0.8,0.4-1.2,0.6c1.6,0,3.2,0,4.8,0c0.1-3.2,0.3-6.5,0.2-9.7
					c0-6.4,0.7-12.8-0.3-19.3c3.8,2.7,7.7,5.5,11.9,0.2c0.1,0.2,0.2,0.4,0.3,0.6c-1.1,1.3-2.2,2.5-3.3,3.8c-0.1,0.9-0.2,1.9-0.3,2.8
					c-0.5,0.2-0.9,0.3-1.3,0.4c0,0.1,0.1,0.2,0.1,0.3c0.3-0.1,0.7-0.2,1-0.3c0,0.7,0,1.2,0,1.8c-0.5,0.1-1,0.1-1.6,0.2
					c0.7,0.2,1.3,0.3,1.8,0.4c0,0.1,0,0.2,0,0.3c-0.3,0.1-0.6,0.2-1.1,0.3c1.1,0.6,1.4,1.2,0.9,3c-0.2,0.8-1.2,1.4-1.7,2.1
					c0.9,0.5,0.9,0.8-0.4,1.8c0.4,0.1,0.7,0.1,0.7,0.1c-0.2,0.4-0.5,0.8-0.6,1.2c0,0.2,0.3,0.5,0.5,0.8c-0.2,0.1-0.5,0.2-1.2,0.5
					c0.8,0.1,1.1,0.2,1.5,0.3c-0.5,0.2-0.8,0.4-1.3,0.6c0.6,0.1,0.9,0.2,0.8,0.2c-0.3,1-0.6,1.9-0.9,3c0.6,0,0.9,0.1,1.5,0.1
					c-0.7,0.3-1,0.4-1.3,0.6c0,0.1,0,0.2,0.1,0.3c0.3,0,0.7,0,1,0c0,0.1,0,0.2,0,0.2c-0.3,0.1-0.7,0.2-1.1,0.3c0,1.1,0,2.1,0,3.2
					c1.4,0,2.8,0,4.2,0c1.1-9.4,2.3-18.9,3.4-28c2.2,0.9,4.7,1.9,7.2,2.9c-0.1,0.1-0.4,0.2-0.6,0.3c0.2,0.2,0.6,0.4,0.6,0.4
					c-0.3,0.5-0.6,1-0.8,1.3c0.1,0.4,0.3,0.9,0.2,1.2c-0.9,1.9,0,4.3-1.9,5.9c-0.4,0.3-0.1,1.4-0.2,2.1c-0.1,0.7-0.2,1.3-0.3,1.9
					c0,0.1-0.5,0-1.1,0.1c0.6,0.3,0.9,0.4,1.3,0.7c-0.5,0.1-0.8,0.2-1.3,0.3c0.6,0.2,0.9,0.3,1.2,0.4c-0.1,0.1-0.2,0.2-0.4,0.4
					c-0.2,0-0.5-0.1-0.7-0.1c-0.3,0-0.5,0-0.5,0c0.3,0.4,0.8,0.9,1.3,1.6c-0.7-0.4-1.2-0.7-1.6-1c-0.1,0.1-0.1,0.2-0.2,0.4
					c0.3,0.1,0.6,0.2,1.2,0.4c-0.5,0.2-0.8,0.3-1,0.4c0.2,0.2,0.5,0.6,0.4,0.7c-0.5,0.8-0.3,1.8-0.5,2.6c-0.1,0.2,0.2,0.6,0.1,0.7
					c-0.7,1.1-1,3.6-0.5,4.5c1.7,0,3.4,0,5.1,0c0.2-0.2,0.6-0.3,0.6-0.5c0.2-2.2,0.9-4.3,1-6.6c0.1-1.2,0.7-2.3,1.1-3.5
					c0,0,0,0-0.1,0c0.3-0.8,0.5-1.5,0.7-2.1c0,0-0.1-0.1-0.3-0.3c-0.1,0.1-0.2,0.3-0.3,0.4c0,0,0,0.1,0,0.1c0,0,0,0-0.1,0
					c0-0.3,0-0.5,0-0.7c1.5-0.1,0.9-1.3,1.1-2c0.3-0.9,0.4-1.9,0.6-2.9c0.5-3.5,2.2-7,0.3-10.3c2.8,1,5.9,2.1,8.8,3.2
					c0.9-1.6,1.6-2.7,2.3-3.9c0.2,0.5,0.1,0.9,0,1.3c-0.9,2.1-1.9,4.1-2.9,6.2c-0.5,1-1.2,2.1-1.2,3.1c0,2.5-0.8,4.7-2.3,6.7
					c-0.1,0.1-0.2,0.3-0.1,0.5c0.1,0.8-0.6,1.4-1.4,1.2c-0.1,0-0.2,0.1-0.4,0.2c0.4,0.2,0.8,0.4,1.4,0.7c-0.6,0.2-0.9,0.2-1.3,0.3
					c0.5,0.2,0.9,0.3,1.5,0.5c-1.2,0.2-1.6,0.7-1.3,1.4c0.5,1-0.3,3.1-1.3,3.5c0.1,0.2,0.3,0.4,0.6,0.7c-0.7-0.1-1.1-0.1-1.7-0.1
					c0.5,0.3,0.9,0.6,1.6,1.1c-0.9-0.1-1.4-0.2-2.1-0.3c0.6,0.4,1,0.7,1.6,1.1c-0.6,0-0.9,0-1.3,0c0.3,0.4,0.5,0.7,0.8,1.1
					c1.8,0,3.6,0,5.4,0c0.2-1.2,1.5-2.1,0.6-3.5c0.9-0.7,0.7-2,1.2-2.9c0.9-1.5,1.2-3.3,1.7-4.9c0.1-0.2-0.3-0.6-0.4-0.9
					c0-0.1,0-0.2,0-0.3c0.3,0,0.6,0,1.2-0.1c-0.5-0.3-0.7-0.5-1.1-0.8c2.2,0,0.6-1.5,1.1-2.3c0.5-0.7,0.6-1.7,0.8-2.6
					c0.1-0.1,0.6-0.2,0.6-0.4c0-0.4-0.2-0.8-0.4-1.3c0.3,0,0.6,0,1.1,0c-0.4-0.3-0.7-0.5-1.2-1c0.7,0,1,0,1.2,0
					c-0.2-0.3-0.6-0.7-0.5-0.8c1-1.3,0.6-3.2,1.9-4.4c0.1-0.1,0-0.2,0-0.7c-0.3,0.5-0.4,0.8-0.5,0.8c-0.5-1-1-2-1.4-2.6
					c3,1,6.2,2.1,9.5,3.2c-0.5,0.9-1.2,1.9-1.9,3.2c-0.3,0.8-0.5,2.1-1.2,3.2c-0.3,0.4-0.8,0.4-0.6,1.3c0.1,0.6-0.1,1.9-1.5,1.8
					c0.2,0.3,0.3,0.6,0.6,1.1c-0.4-0.1-0.7-0.1-1.1-0.1c0.3,0.3,0.4,0.6,0.4,0.5c-0.4,0.5-0.8,0.8-0.9,1.2c-0.1,0.5,0,1.1,0,1.8
					c-0.5-0.3-0.7-0.4-1.2-0.7c1.8,2.2-0.7,2.5-1.1,3.6c0.2,0.2,0.4,0.3,0.8,0.6c-0.7,0.5-1.4,1-1.9,1.4c0.1,0.7,0.1,1.3,0.2,1.9
					c-0.4-0.1-0.7-0.1-0.7-0.1c0,0.6,0.2,1.3,0,1.7c-0.3,0.4-0.9,0.7-1.4,1c0.1,0.1,0.4,0.3,1,0.6c-0.7,0.4-1.3,0.7-1.8,1
					c0.1,0.1,0.2,0.2,0.3,0.3c2.2,0,4.4,0,6.6,0c0.2-0.6,0.5-1.1,0.7-1.7c0.7-2.3,3.1-4.1,2.2-6.9c0-0.1,0.6-0.5,0.9-0.7
					c-0.1-0.2-0.3-0.5-0.5-0.9c0.4,0.1,0.7,0.1,1,0.2c-0.2-0.3-0.3-0.6-0.5-0.9c0.1,0,0.3,0.1,0.4,0.1c0.5-1.1,0.9-2.3,1.4-3.4
					c0.1,0,0.2,0.1,0.4,0.1c-0.2-0.3-0.3-0.5-0.5-0.9c0.5-0.1,0.8-0.1,0.8-0.1c0.9-2,0.8-4.1,2.1-5.9c0,0,0,0,0.1,0
					c0.4-1.1,0.5-2.2,1-3.1c1.3-2.6,1.4-2.6-0.8-4.5c-0.2-0.2-0.4-0.3-0.5-0.4c0-0.1,0.1-0.1,0.1-0.2c2.9,1,5.8,2.1,9.1,3.3
					c-1,0.8-1.6,1.3-2.3,1.8c0.2,0.2,0.3,0.5,0.4,0.5c-0.8,1.4-1.6,2.6-2.3,3.8c-0.1-0.1-0.2-0.1-0.3-0.2c0.2,0.3,0.3,0.5,0.6,1
					c-0.5-0.1-0.8-0.2-1.2-0.2c0,0.7,0,1.2,0,1.4c-0.7,0.4-1.1,0.7-1.8,1c1.2,0.7,1.1,1.2,0.2,1.7c-0.7,0.4-1.3,0.9-2.2,1.5
					c0.7,0.2,1,0.3,1.1,0.3c-0.7,0.5-1.5,0.9-1.5,1.1c0.2,1-0.4,1.3-0.9,1.9c-0.4,0.4-0.6,1.1-0.7,1.7c-0.2,1.4-1.4,3.1-2.1,3.2
					c-0.1,0.5,0,0.9-0.2,1.2c-0.3,0.5-0.6,1-1,1.2c-0.7,0.2-1,0.7-0.6,1.4c0.1,0.1,0.1,0.2,0.1,0.4c-0.3,0-0.6-0.1-0.9-0.1
					c0.3,0.3,0.4,0.6,0.7,0.9c-0.9-0.1-1.8-0.7-2.1,0.5c7,0,14.1,0,21.1,0c4.4-5.6,8.8-11.2,13.1-16.9c3.6-4.6,7.1-9.3,10.7-13.9
					C341.9,124.9,340.9,124,340.7,123z M158.7,120.4c0.9-0.9,1.7-1.7,2.5-2.5c0.2,0.8,0.4,1.8,0.7,3
					C160.7,120.7,159.7,120.5,158.7,120.4z M167.6,121.2c-1.8-1.5-2.8-4.1-5.7-4.1c1.4-0.7,2.7-1.3,3.9-1.8c0.3,0.8,0.8,1.7,1.2,2.7
					c0.4,1,0.8,1.9,1.2,2.9c0.1,0.2,0.1,0.5,0.1,0.7C168,121.5,167.8,121.4,167.6,121.2z M177.9,123.7c-0.8-0.8-2.3-1.5-2.4-2.3
					c-0.2-1.8-1.5-2.5-2.5-3.5c-0.3-0.3-1-0.5-1-0.8c-0.5-2-2.2-2.3-3.8-2.7c-0.7-0.2-1.4-0.2-2-0.3c2.3-0.8,5-0.5,6.3-2.7
					c1.9,4,3.8,7.9,5.7,11.9C178.1,123.4,178,123.5,177.9,123.7z M190,127.6c-0.5-0.7-0.9-1.9-1.5-2.1c-1.2-0.3-0.5-1.1-0.9-1.7
					c-0.3,0.1-0.6,0.1-1.2,0.3c0.5-0.5,0.7-0.8,1.2-1.3c-0.7,0.2-1.1,0.2-1.7,0.4c0.4-0.5,0.6-0.7,0.9-1.2c-0.6,0.1-0.9,0.2-1.3,0.2
					c0.3-0.5,0.5-0.9,0.7-1.3c-0.1-0.1-0.2-0.2-0.3-0.2c-0.1,0.3-0.2,0.5-0.4,0.9c-1.1-1.8-1.9-3.4-2.9-4.8c-0.8-1.2-1-3.1-3.1-3.2
					c0.3-0.1,0.6-0.2,1-0.3c-0.2-0.7-0.5-1.2-0.7-1.8c-0.4-0.2-1,1.5-1.3-0.3c-0.2,0.5-0.3,0.8-0.4,1.1c-0.1,0-0.2,0-0.3,0
					c0-0.3-0.1-0.6-0.1-0.7c-1.3-0.2-2.5-0.4-3.8-0.6c0-0.1,0-0.3,0-0.4c3.3,0.1,6.3-0.6,8.7-3.2c0.2,3.8,2.2,6.6,3.4,9.8
					c1.3,3.5,3,6.8,4.6,10.2C190.4,127.4,190.2,127.5,190,127.6z M201,127c-0.3-0.1-0.6-0.2-0.8-0.4c-0.5-0.9-1-1.9-1.5-2.8
					c-1.1-2.1-2.2-4.1-3.3-6.2c-0.4,0.2-0.8,0.3-1.4,0.5c0.3-0.5,0.4-0.8,0.4-0.8c-0.5-0.6-0.8-1-1.2-1.5c-0.6-0.8-1.1-1.7-1.8-2.6
					c0,0,0.4-0.2,0.7-0.4c-1.4,0.7-1.3-0.6-1.8-1.2c0.5-0.2,0.8-0.3,1.1-0.4c0,0,0-0.1-0.1-0.1c-0.8,0.2-1.6,0.3-2.4,0.5
					c0-0.1,0-0.2-0.1-0.3c0.4-0.2,0.8-0.3,1.2-0.5c-0.3-0.8-0.6-1.5-0.9-2.3c-2.1,0.6-3.9,0-5.6-1.1c4.1,0.8,7.6-0.2,10.7-3
					c0.1,0.1,0.2,0.2,0.3,0.3c-0.2,0.5-0.3,0.9-0.5,1.4c0.1,0,0.2-0.1,0.3-0.1c0.1,0.8,0.3,1.5,0.4,2.2c0.1,0.1,0.3,0.3,0.4,0.5
					c0.5,0.8-0.2,2.1,1,2.6c-0.2,0.2-0.3,0.4-0.4,0.5c0.3,0.4,0.7,0.8,0.9,1.2c1,2.7,2,5.3,2.9,8c0.6,1.7,1.1,3.4,1.6,5.1
					C201.3,126.4,201.1,126.7,201,127z M211.7,127.9c-0.7-1.3-1.4-2.5-2-3.7c-0.7-1.5-1.3-3-2.1-4.5c-1.6-3.3-3.2-6.5-4.8-9.8
					c-0.3-0.6-0.5-1.1-1.3-0.6c-0.1,0-0.2-0.1-0.5-0.3c0.5-0.2,0.8-0.4,0.9-0.4c-0.8-0.9-1.6-1.7-2.5-2.7c-1-0.3-2.5-0.7-3.9-1.1
					c0-0.2,0-0.4,0.1-0.6c4.4,1.1,8.4,0.3,12.2-2.2c0.1,0.1,0.2,0.3,0.3,0.4c-0.4,0.5-0.7,1-1,1.3c0.2,0.2,0.7,0.5,0.6,0.7
					c0,0.3-0.4,0.6-0.6,0.8c0.2,0.1,0.5,0.3,0.7,0.4c-0.3,0.2-0.5,0.5-0.8,0.7c0.9,0.2,1.8,2.1,1.4,3c-0.2,0.4-0.1,0.6,0.3,0.8
					c-0.2,0.1-0.3,0.3-0.3,0.3c1.2,4.3,2.4,8.4,3.6,12.5c-0.3,0.1-0.5,0.3-1,0.5c0.5,0.1,0.9,0.2,1.4,0.4c-0.5,0.2-0.8,0.3-1.1,0.4
					c1.2,0.3,1.6,0.8,0.5,1.6c0.4,0.2,0.7,0.5,1.2,0.8c-0.3,0.2-0.5,0.3-0.6,0.4c0.2,0.1,0.4,0.3,0.9,0.6
					C212.5,127.7,212,127.8,211.7,127.9z M223,129.2c-0.6-1.5-1.2-3-1.8-4.6c0,0-0.3,0-0.5,0c0.2-0.4,0.5-0.8,0.5-1
					c-0.4-1-0.2-2.4-1.8-2.9c0.3-0.2,0.5-0.3,0.9-0.6c-0.5-0.1-0.8-0.2-1.4-0.3c0.5-0.3,0.7-0.5,0.7-0.5c-0.3-0.4-0.7-0.7-0.9-1.1
					c-0.4-1.1-0.7-2.2-1-3.4c0.1,1.4,0.3,2.9,0.4,4.3c-0.1,0-0.3,0-0.4,0.1c-0.5-2.1-1-4.2-1.5-6.3c-0.3-0.4-0.7-0.7-0.8-1.1
					c-0.5-1.2-0.8-2.4-1.2-3.6c-0.1,0-0.3,0.1-0.4,0.1c0.7,2.1,1.4,4.2,2,6.3c-0.1,0-0.3,0-0.5-0.1c-0.2,0-0.4-0.1-0.6-0.2
					c0.3-0.3,0.5-0.4,0.7-0.6c-0.2,0-0.4,0.1-0.6,0.1c-0.8-2.3-1.4-4.6-2.7-6.7c0.5,1.5,0.9,3.1,1.4,4.6c-0.2,0.1-0.3,0.1-0.5,0.2
					c-0.6-1.3-1.1-2.7-1.7-4c1.5-0.2-0.4-0.9-0.2-1.4c0.2-0.1,0.5-0.3,0.7-0.4c-0.4-0.2-0.6-0.3-0.9-0.5c0.3-0.1,0.6-0.3,0.9-0.4
					c-0.1-0.4-0.3-0.8-0.5-1.5c-0.1,0.6-0.1,0.9-0.1,1.2c-0.6-0.5-1.1-0.9-1.6-1.3c0.3-0.2,0.6-0.3,0.7-0.4
					c-0.6-0.4-1.2-0.9-1.7-1.3c0-0.2,0.1-0.4,0.1-0.5c4.8,1.2,9.5,1.2,13.8-1.7c0,0.1,0.1,0.3,0.1,0.4c-0.5,0.6-1,1.3-1.4,1.7
					c0.3,0.5,0.7,0.9,0.8,1.3c0.1,0.3,0.3,2.1,0.2,2.5c-0.2,0.8,0.1,1.3,0.3,2c0.2,0.6-0.3,1.5,0,2.1c0.6,1.6,0.5,3.2,1,4.8
					c0.4,1.2,0.4,2.7,0.7,4.1c0.4,2.3,0.6,4.7,0.8,7.1C225.2,128.6,225.2,128.6,223,129.2z M228.9,123.8c-0.6-2-1.3-4.1-1.9-6.1
					c0.7,0.5,0.9,1.3,1.5,2c0.8,0.9,0.5,2.7,0.6,4.2C229,123.8,229,123.8,228.9,123.8z M238.8,102.2c0,0.1,0,0.2,0,0.2
					c-1,0.1-2.1,0.2-3.3,0.4c1.6,0.7,2.1,1.9,1.6,3.5c-0.1-0.6-0.2-1.2-0.3-1.8c-0.2,0-0.3,0.1-0.5,0.1c0.1,0.9,0.2,1.9,0.3,2.8
					c-0.3,0.1-0.6,0.2-0.9,0.3c0,0.1,0,0.2,0,0.2c0.4,0,0.8,0,1.2,0c0,1.9,0,3.7,0,5.6c-0.3,0-0.6,0.1-0.9,0.1c0,0.1,0,0.1,0,0.2
					c0.3,0.1,0.7,0.2,1.3,0.4c0,2.8,0,5.6,0,8.4c0,1-0.2,1.9-0.4,3c-0.1,0,0.1,0,0.2,0.1c-0.1,0.8,0.1,1.7-0.3,2.1
					c-0.5,0.7-1.3,1.2-2.1,1.5c-0.7,0.3-1.5,0.2-1.8-1c-0.1-0.5-0.9-0.8-1.6-1.3c-0.2-0.9-0.5-2.1-0.7-3.3c-0.1,0-0.2,0-0.3,0
					c0,0.5-0.1,1-0.1,1.6c-0.1,0-0.2,0-0.2,0c-0.1-0.6-0.3-1.3-0.4-2c0.4,0,0.7,0,1.1,0c-0.1-0.9-0.3-1.8-0.4-2.6
					c-0.1,0-0.2,0-0.3,0c0,0.7,0,1.5,0,2.2c-0.1,0-0.2,0-0.3,0c-0.4-1.8-0.7-3.6-1.1-5.4c-0.1,0-0.2,0-0.3,0.1
					c0,0.5,0.1,0.9,0.2,1.8c-0.7-1.3-1.2-2.3-1.7-3.2c-0.2,0-0.5,0.1-0.8,0.1c0-0.1,0-0.1-0.1-0.2c0.3-0.2,0.7-0.3,0.9-0.4
					c-0.5-2-1-3.8-1.6-5.8c0.2-0.1,0.5-0.2,1.2-0.5c-0.7,0-1,0-1.4,0c0-0.1,0-0.2,0-0.3c0.2-1.4-1.3-2.7-0.3-4.2
					c-0.1,0-0.2,0-0.3-0.1c-0.2-0.2-0.3-0.4-0.5-0.6c0.3-0.1,0.5-0.2,0.7-0.3c-2-0.6,0.1-2.2-0.9-3.2c0,0.5,0,0.9,0.1,1.3
					c-0.1,0-0.2,0-0.3,0c-0.2-0.7-0.4-1.4-0.7-2.4c5.5,1.6,10.8,2.7,16-0.5c0,0.2,0.1,0.3,0.1,0.5c-0.8,1-1.6,2-2.4,2.8
					C237.3,102.2,238,102.2,238.8,102.2z M340,120.4c-1,0.6-2.5,0.9-2.8,1.7c-0.6,1.4-1.7,1.3-2.7,1.7c-0.7,0.2-1.2,0.8-1.9,1.2
					c-0.5,0.3-0.9,0.5-1.4,0.8c0-0.1-0.1-0.2-0.1-0.4c1.8-2.4,3.6-4.8,5.3-7.1C337.6,119,338.7,119.7,340,120.4z M336.5,117.5
					c-2.4,1.5-3.2,4.2-5.1,6.3c-0.2-0.3-0.3-0.5-0.5-0.8c-0.6,2.2-2.1,2.1-3.7,1.9c-1.2-0.2-2.1,0.3-2.5,1.4c-0.4,0.9-1,1.1-1.7,0.6
					c2.7-4,5.3-8,7.7-11.7C332.5,115.9,334.3,116.7,336.5,117.5z M330.5,113.6c-0.8,1.1-1.5,2.1-2.3,3.1c-0.2,0.2-0.7,0.4-0.7,0.4
					c0.4,1.3-0.5,1.4-0.9,1.4c-0.3,1-0.5,1.8-0.8,2.6c-0.1,0-0.3-0.1-0.4-0.1c0-0.3,0-0.6,0-0.9c-0.4,0.3-0.7,0.7-0.7,1.1
					c-0.2,2.3-2.8,4.7-5,4.6c-1.2,0-2.4,0-4,0c2.8-5,5.5-9.9,8.3-15C325.3,113.8,328.2,113.1,330.5,113.6z M255.7,100.1
					c-1.1,0.3-2,0.6-3,0.9c1.5,0.7,1.5,0.7,1.7,2.8c-0.3,0.2-0.7,0.3-1,0.5c0,0.1,0.1,0.2,0.1,0.2c0.7,0,1.3,0,2,0
					c0,0.1,0,0.2,0.1,0.3c-0.7,0.2-1.4,0.4-2.1,0.5c0,0.1,0,0.2,0,0.3c0.6,0,1.3,0,1.9,0c0,0.1,0,0.2,0,0.4c-0.6,0.1-1.2,0.2-2,0.4
					c0.3,0.5,0.6,0.9,0.9,1.4c-0.3,0.2-0.6,0.3-0.8,0.5c0,0.2,0.1,0.3,0.1,0.5c0.5-0.1,1.1-0.1,1.9-0.2c-1,0.9-1.9,1.7-2.9,2.6
					c0,0,0,0.2,0,0.5c0,0.8-0.1,1.7,1.2,1.4c0.1,0,0.2-0.2,0.3-0.4c-0.4,0-0.7,0-1.1,0c0-0.6-0.1-1-0.1-1.5c0.7,0.5,1.3,1.2,1.3,1.8
					c0,0.7-0.6,1.4-1,2.2c0.9,0,1.4,0.1,1.9,0.1c0,0.1,0,0.1,0,0.2c-0.5,0.1-0.9,0.3-1.4,0.4c0,0.1,0,0.3,0,0.4
					c0.5,0.1,1,0.2,1.9,0.3c-0.9,0.2-1.3,0.3-1.8,0.4c0,1.4,0,2.8,0,4.1c-0.6,0.1-1,0.1-1.4,0.2c0,0.1,0,0.3,0.1,0.4
					c0.4-0.1,0.8-0.1,1-0.2c0,1.2,0,2.3,0,3.4c-0.1,0-0.2,0-0.3,0c-0.1-1-0.1-1.9-0.2-3.1c-1.5,1,0.5,3-1.2,3.7
					c0.2,0.1,0.6,0.2,0.6,0.4c0.3,1.7-1.4,3.6-3.2,3.7c-2.2,0.2-3.8-0.8-5.6-1.8c-1.6-1-2.2-2.2-1.8-3.9c0.4-0.1,0.7-0.2,1-0.2
					c0-0.1,0-0.1,0-0.2c-0.3,0-0.7,0.1-1.2,0.2c-0.4-8.1-0.9-16-1.3-24.4c5.2,2.3,10.4,2.4,15.6,0
					C255.7,99.6,255.7,100.1,255.7,100.1z M267,113.1c-0.1-0.6-0.2-0.9-0.3-1.4c-0.2,0.2-0.3,0.3-0.3,0.3c0,0.2,0,0.5,0,0.7
					c-0.2,1.9,0.7,4-0.9,5.7c-0.1,0.1-0.1,0.5,0,0.5c1.4,1,0.5,2.2,0.4,3.4c0,0.1-0.2,0.1-0.4,0.3c0-0.4,0-0.8,0-1.1
					c-0.2,0-0.4,0-0.6,0c0.9,2.1,1.2,4.1,0,6.1c0.2-1.4,0.3-2.8,0.4-4.1c-0.2,0-0.3,0-0.5-0.1c-0.1,1.3-0.3,2.5-0.3,3.8
					c-0.1,1.9-0.9,2.6-2.8,2.1c-1.4-0.4-2.7-1.2-4.1-1.8c-1-0.4-1.3-1.1-1.3-2.3c0.2-5.3,0.4-10.5,0.5-15.8c0.1-3.4,0-6.8,0-10.7
					c4.7,2.9,9.3,2.5,13.9,0.8c0,0.2,0,0.4,0.1,0.5c-0.7,0.3-1.4,0.6-2.2,1c0.4,0.1,0.7,0.1,1.1,0.2c-0.3,0.3-0.6,0.5-1,0.8
					c0.7,0,1.1,0,1.5,0c0,0.1,0,0.1,0,0.2c-0.4,0.1-0.9,0.2-1.6,0.3c0.4,0.3,0.6,0.4,0.8,0.6c-0.2,0.1-0.4,0.2-0.8,0.4
					c0.6,0.2,0.9,0.3,1.5,0.5c-0.6,0.1-1,0.1-1.5,0.2c0.2,0.1,0.3,0.1,0.4,0.2c-0.4,2.1-0.7,4.1-1,6.1c-0.1,0-0.2,0-0.3,0
					c0-1,0-2,0-3.1c-0.3,0-0.6,0.1-0.9,0.1c0.9,1.1-0.9,3.1,1.6,3.6C267.8,111.8,267.5,112.4,267,113.1z M268.9,104.5
					C269,104.5,269.1,104.5,268.9,104.5L268.9,104.5z M277.2,131c-0.2-0.1-0.3-0.2-0.5-0.3c0.6-1,1.3-2,1.9-3.1
					c0.2,0.1,0.3,0.2,0.5,0.3C278.5,129,277.9,130,277.2,131z M280.8,120.4c0.3,1.2-1.2,1.5-2.9,1.2c0.7,0.8,1.1,1.3,1.6,1.9
					c-0.3-0.1-0.6-0.2-0.9-0.3c-0.4,3.6-0.4,3.6-1.2,4.1c-0.1-0.2-0.1-0.4-0.3-0.8c-0.9,3.3-1,3.7-4.4,2.3c-1.1-0.4-1.9-1.3-3-1.7
					c-1.2-0.5-1.3-1.3-1.2-2.4c0.7-4.7,1.3-9.3,1.9-14c0.5-3.7,1-7.3,1.5-11.3c4.4,3.1,9.2,3.3,14.2,1.6c0,0.2,0,0.4,0.1,0.5
					c-0.7,0.3-1.4,0.7-2.5,1.2c0.7-0.2,1-0.2,1.3-0.3c-0.2,0.7-0.3,1.3-0.5,1.8c-0.1,0-0.2,0-0.2-0.1c0-0.3-0.1-0.7-0.1-1.2
					c-0.3,0.7-0.5,1.1-0.7,1.5c0.5,0.1,1,0.2,1.6,0.3c0,0.1,0,0.2,0,0.3c-0.5,0.1-1.1,0.2-1.5,0.2c0.2,0.4,0.6,0.8,0.5,1.1
					c-0.1,0.5-0.5,0.9-0.8,1.4c0.2,0.1,0.7,0.4,1.6,0.9c-0.8-0.1-1.3-0.2-1.9-0.2c0.5,0.4,0.7,0.6,1.1,0.9c-0.4,0-0.7,0.1-1.1,0.1
					c0.3,0.3,0.6,0.5,0.8,0.8c-0.2,0-0.3-0.1-0.5-0.1c-0.2,1.2-0.4,2.3-0.6,3.4c-0.7,0.1-1.2,0.2-2.2,0.4c1.1,0.6,1.7,0.9,2.3,1.2
					c0,0.1-0.1,0.2-0.1,0.2c-0.6-0.2-1.1-0.3-1.7-0.5c0,0.1-0.1,0.1-0.1,0.2c0.3,0.2,0.7,0.4,1.3,0.8c-0.7,0-1,0-1.5,0.1
					c0.3,0.7,0.6,1.2,0.9,1.8c-0.5-0.1-1.1-0.2-1.6-0.3C282.3,117.7,280.5,119.5,280.8,120.4z M294,122.1c-0.1,0.1-0.1,0.2-0.2,0.2
					c-0.3-0.2-0.6-0.3-1-0.5c-0.1,0.1-0.2,0.2-0.3,0.4c0.4,0.2,0.7,0.5,1.1,0.7c-1.5-0.1-1.3,0.6-0.9,1.1c-0.4,0.5-0.8,0.8-1.2,1.2
					c-0.4,0.4-0.7,0.9-1,1.4c-0.2,0.3-0.3,0.7-0.6,1.4c0-1.2,0-1.9,0-2.9c-0.5,1.6-1,3-1.5,4.4c-0.8-0.1-1.4-0.1-2-0.4
					c-1.6-0.7-3.4-1.2-4.7-2.3c-0.5-0.4,0.2-2.2,0.5-3.3c1.6-7.3,3.3-14.6,5-22.1c3.7,3.3,8,3.9,12.8,2.4c0,0.2,0,0.4,0,0.6
					c-0.4,0.2-0.9,0.4-1.6,0.7c0.6,0,0.9,0,1.6,0c-0.7,0.4-1.1,0.6-1.5,0.8c0.3,0.1,0.5,0.2,0.5,0.2c-0.3,0.5-0.6,1-0.9,1.5
					c-0.4-0.1-0.8-0.2-1.5-0.4c0.9,0.6,1.5,1,2.1,1.4c-0.1,0.1-0.1,0.2-0.2,0.2c-0.6-0.3-1.3-0.5-1.9-0.8c0,0,0,0.1-0.1,0.1
					c0.7,0.5,1.3,1,2,1.4c0,0.1-0.1,0.1-0.1,0.2c-0.4-0.1-0.8-0.3-0.8-0.3c-0.2,0.6-0.4,1.2-0.5,1.8c-0.7-0.4-1.1-0.6-1.6-0.8
					c1.3,0.9,1.8,2.1,1.4,3.6c-0.9-0.3-1.7-0.7-2.5-1c0,0.1,0,0.1-0.1,0.2c0.8,0.5,1.6,1,2.4,1.5c-0.1,0.1-0.1,0.2-0.2,0.2
					c-0.4-0.2-0.9-0.4-1.3-0.6c0,0.1-0.1,0.1-0.1,0.2c0.3,0.2,0.5,0.5,1.1,0.9c-0.7-0.1-0.9-0.1-1.5-0.2c0.7,0.5,1.1,0.8,1.3,1
					c-0.6,0.2-1.3,0.5-1.7,0.7c0.3,0.3,0.5,0.5,0.7,0.7c-0.2,0-0.4,0.1-0.6,0.1c-0.1,0.9-0.3,1.8-0.4,2.7c-0.4-0.1-0.9-0.2-1.6-0.5
					c0.9,0.6,1.4,1,2,1.4c0,0.1-0.1,0.1-0.1,0.2c-0.7-0.3-1.3-0.6-2-0.9c0,0,0,0.1,0,0.1C292.9,121.2,293.4,121.6,294,122.1z
					 M302.3,129.8c0.6-0.9,1.2-1.7,1.9-2.8C304.4,129.3,303.6,130.4,302.3,129.8z M305.6,124.1c-0.5-0.3-0.8-0.4-1-0.5
					c-0.3,0.8-0.5,1.5-0.8,2.1c-0.2-0.1-0.5-0.2-0.6-0.3c-0.7,0.9-1.2,1.8-1.9,2.5c-0.5,0.5-1.4,1.1-2,0.9c-1.7-0.5-3.3-1.3-4.9-1.9
					c2.4-7.7,4.8-15.1,7.2-22.8c3.1,3.4,7.2,3.7,11.6,3c-0.4,0.4-1,0.5-1.1,0.8c-0.6,1.3-1,2.6-1.5,3.9c-0.2,0.5-0.1,1.2-0.5,1.4
					c-0.9,0.6-0.8,1.3-0.9,2.2c0,0.7-0.1,1.8-0.5,2c-1.2,0.7-1,1.9-1.4,2.8c0,0.1-0.2,0.1-0.2,0.1c-0.3-0.1-0.5-0.3-1.1-0.5
					c0.5,0.6,0.7,1,1,1.3c-0.1,0-0.3,0-0.4,0c-0.1,0.4-0.3,0.7-0.3,1.1c-0.1,0.9-0.3,1.5-1.3,0.8c0,0-0.1,0.1-0.2,0.1
					C305,123.2,305.2,123.5,305.6,124.1z M310.7,127.4c-1.7-0.3-3.4-0.7-5-1c2.9-6.4,5.7-12.6,8.6-18.9c2.2,2.8,5.5,2.9,8.8,2.9
					c0,0.1,0,0.3,0,0.4c-0.7,0.4-1.5,0.8-2.2,1.2c0.1,0.1,0.1,0.2,0.2,0.2c0.2,0.2,0.5,0.3,0.9,0.6c-0.7,0.9-1.3,2-2.2,2.6
					c-1,0.7-1.5,1.7-0.9,2.4c-0.4,0.6-0.7,1.1-1,1.7c-0.2,0-0.5-0.1-1.1-0.3c0.3,0.6,0.5,0.9,0.7,1.2c-0.9,1.6-1.6-0.2-2.3-0.1
					c0.4,0.8,0.7,1.5,1.2,2.5c-0.7-0.3-1.2-0.5-1.6-0.8c0,0.1-0.1,0.1-0.1,0.2c0.4,0.3,0.8,0.6,1.2,1c-0.1,0.1-0.1,0.2-0.2,0.4
					c-0.6-0.4-1.2-0.7-1.9-1.1c0.1,0.9,0.2,1.6,0.3,2.6c-0.6-0.3-1-0.5-1.7-0.8c0.6,0.7,1,1.1,1.5,1.7c-0.5-0.1-0.8-0.2-1.3-0.3
					c0.4,0.5,0.7,0.8,0.8,1c-0.5,0.1-1,0.3-1.4,0.4C311.5,127.1,311,127.4,310.7,127.4z M313.2,129.4c0.7-0.9,1.4-1.7,2.2-2.6
					c1.1,1.5-0.2,2.3-0.5,3.3C314.3,129.8,313.8,129.6,313.2,129.4z M309.6,151.2c0,0-0.3-0.2-0.7-0.3c0.3-0.6,0.5-1.2,0.8-1.8
					c0.4,0.1,0.9,0.1,1.3,0.2C310.5,149.8,310.1,150.4,309.6,151.2z M313.9,144.3c-0.3,0.7-0.5,1.3-0.7,2c-0.3,0-0.8,0.1-1.5,0.2
					c0.9-1.6,1.7-3,2.5-4.5c0.5,0.5,0.8,0.8,1.2,1.3c-0.7,0.3-1.3,0.5-1.9,0.8C313.7,144.2,314,144.4,313.9,144.3z M318.5,137.6
					c0,0.2,0.2,0.5,0.1,0.6c-1,1.1-2,2.2-3.1,3.3c-0.2-0.2-0.5-0.5-0.8-0.7c0.6-1.1,1.3-2.2,1.8-3.3c0.3-0.8,0.7-0.4,1.2-0.3
					c0.1-1,0.3-2,0.5-3c0.1-0.3,0.5-0.6,0.7-0.7c1-0.1,1-0.8,0.9-1.5c-0.2-0.4-0.3-0.9-0.5-1.3c0.5,0.1,0.9,0.1,1.2,0.1
					c0-0.1,0-0.3,0-0.4c0-0.3,0.1-0.5,0.2-0.8c0.5,0.2,1,0.5,1.5,0.7c-0.2,0.4-0.4,0.9-0.6,1.3c0.6,0.2,0.7,0.6,0.4,1.1
					c-0.7,1.2-1.4,2.4-2.2,3.5C319.5,136.7,319,137.1,318.5,137.6z M321.2,141.3c-1-1.2,2.3-1.2,0.7-2.5c0.3-0.2,0.6-0.5,1-0.8
					c0.1,0.6,0.2,1.2,0.3,1.6C322.5,140.2,321.9,140.8,321.2,141.3z M324,130c-1,0.3-1.7-0.4-2.5-0.7c-1.8-0.7-3.5-1.5-5.2-2.3
					c0-0.2,0.1-0.3,0.1-0.5c0.6,0.1,1.1,0.1,1.7,0.2c1.7,0.5,3.4,1.1,5.1,1.7c1,0.4,1.6,0.2,1.9-0.9c0.1-0.3,0.2-0.5,0.3-0.8
					C326.2,127.9,325.2,129.6,324,130z M331.9,128.1c-0.7,0.1-1.2,0.4-1.4,1.2c-0.2,0.4-0.6,0.8-1,1.2c-0.2,0.2-0.5,0.3-0.7,0.5
					c-0.9,1.3-1.8,2.6-2.6,3.9c-0.2-0.1-0.4-0.1-0.5-0.2c0.1-0.4,0-0.8,0.2-1.1c0.5-0.7,1-1.3,1.1-2.2c0-0.4,0.1-0.8,0.4-1.1
					c1-1,0.9-2.7-0.3-3.5c-0.3-0.2-0.6-0.5-0.9-0.7c0-0.1,0.1-0.2,0.1-0.3c1.5,0.3,3.1,0.6,4.6,1.1c1,0.3,1.9,0.5,2.5-0.8
					C333.4,127.1,333.1,127.9,331.9,128.1z M340,125.9c-0.9,0.4-1.8,0.8-2.7,1.3c0-0.1,0-0.3,0-0.7c-0.5,0.4-1,0.7-1.6,1.2
					c0.2-0.6,0.3-1,0.3-1.1c-0.9-0.6-1.7-1.1-2.4-1.6c0.1-0.2,0.1-0.4,0.2-0.6c2.1,0.4,4.2,0.8,6.3,1.2
					C340.1,125.7,340,125.8,340,125.9z"/>
				<path class="st1" d="M208.4,110.3L208.4,110.3C208.4,110.3,208.4,110.3,208.4,110.3z"/>
				<path class="st1" d="M174.5,128c0.2,0.6,0.3,1.2,0.7,1.7c3.2,4.4,6.3,8.9,9.5,13.3c3,4.1,5.9,8.1,8.9,12.2
					c0.2,0.3,0.4,0.5,0.7,0.8c0.1-0.1,0.2-0.2,0.3-0.2c-6.6-9.3-13.2-18.5-19.8-27.8C174.7,128,174.6,128,174.5,128z"/>
			</g>
		</g>
	</g>
	<g>
		<path class="st2" d="M252.2,150c-46.8,0-85.7-6-93.9-13.9c26.8,39.1,53.7,78.2,80.5,117.4c2.1,28.5,4.3,57,6.4,85.5
			c0.5,0.1,1.2,0.2,2,0.1c0,0,1-0.1,1.9-0.6c1.4-0.6,7.2-5.4,14.7-12.2c1.1-24.2,2.2-48.4,3.3-72.6c26.2-39,52.4-78.1,78.7-117.1
			C336.8,144.1,298.3,150,252.2,150z"/>
		<path class="st4" d="M156.5,136.7c-0.1,0.1-0.4,1-0.3,2.1c0,0.4,0.1,0.8,0.2,1c17.7,25,74.6,105.5,81.1,107.9c4.4,1.7,6,0.2,6,0.2
			c1.1-1,1.1-2.1,1.1-2.1c0-0.4-0.1-0.7-0.2-0.8c-9.7-31-19.4-61.9-29.1-92.9c-0.1-0.4-0.2-0.9-0.5-1.5c-2.8-5.6-14-2.4-26.9-4.3
			C172.4,144.1,157.3,135.1,156.5,136.7z"/>
		<path class="st5" d="M181.5,150.4c-2-0.3-3.5-1.3-5.4-1.8c-0.6,0-1.2,0-1.4-0.7c-0.5-0.1-1-0.1-1.4-0.2c-0.4,1.2-0.1,2.5,0.8,3.3
			c2.2,2,3.3,4.6,4.8,6.9c2.8,4.2,5.5,8.4,8.2,12.6c2.7,4.1,5.4,8.3,8,12.4c3,4.7,6,9.4,9.3,13.9c2.1,2.9,4,6,6.1,9
			c3.1,4.5,6.3,9,9.3,13.6c2.7,4.2,6,8,8.4,12.4c1.1,2,2.6,3.7,4.1,5.5c0.7,0.9,1.7,1.6,2.9,1.9c0.1-2.4-1.3-4.3-2.4-6.3
			c-1.2-2.2-2.6-4.2-3.8-6.4c-0.9-1.7-2.2-3.3-3.1-5c-1.6-3-3.5-6-5.3-9c-2.2-3.7-4.4-7.3-6.6-10.9c-2.2-3.6-4.3-7.2-6.5-10.9
			c-2.5-4.2-5.1-8.4-7.9-12.5c-2.2-3.2-4.1-6.6-6.2-9.9c-2.5-4-5.1-8-7.8-12C184.2,154.4,182.5,152.6,181.5,150.4z"/>
		<path class="st6" d="M213.3,148.8c-0.4,0.8,0,1.8,0.3,2.5c22.1,66.6,32.4,97.8,32.4,97.8v0c0,0,2,0.4,2.9-0.3
			c0.3-0.2,0.6-0.7,0.6-1.8c0.2-15.8,1.2-87.8,0.6-94.9c0-0.4-0.1-1-0.5-1.7c-2-3.3-8.6-0.8-18.4-1
			C221.1,149.3,214.5,146.5,213.3,148.8z"/>
		<path class="st7" d="M252.1,247c2.4-32.5,4.8-65,7.2-97.5c19.7-1.2,39.3-2.4,59-3.6c-19.7,34.2-39.5,68.3-59.2,102.5
			c-0.1,0.6-0.6,2-1.8,2.7c-0.8,0.4-1.8,0.3-3.9,0c-0.4,0-0.6-0.1-0.8-0.2C251.5,250.2,252,247.6,252.1,247z"/>
		<path class="st8" d="M246.2,157.7c0.6,30.2,1.1,60.3,1.7,90.5c-0.1,0.6,0,1,0.1,1.2c0.7,1.5,3.7,1.7,4.5,0.6
			c0.2-0.2,0.2-0.5,0.2-0.6c12.7-33.2,25.5-66.4,38.2-99.6c0.2-0.2,0.4-0.4,0.4-0.6c-0.2-1.5-10.6-0.4-26.8-0.3
			c-11.1,0.1-16.5-0.4-18.4,2.9C245.1,153.7,245.6,156,246.2,157.7z"/>
		<path class="st9" d="M258.2,248.1c-0.2,0.2-0.7,1.1-0.5,1.6c0.3,0.5,1.2,0.6,1.7,0.6c5.3,0,8,0,8.6-0.1c0.4-0.1,0.8-0.2,1.3-0.2
			c25.4-37.9,50.9-75.7,76.3-113.6c-4.2,3.6-15,6.9-29.9,9.2c-0.3,0.2-0.5,0.3-0.8,0.5C296.1,180.1,277.1,214.1,258.2,248.1z"/>
	</g>
	<path class="st3" d="M316.9,142.8c-17.9,3.2-41.8,5-67.2,5s-49.2-1.8-67.2-5c-20.7-3.7-26.1-8-26.1-9.8h-4.5c0,2.2,0,8.9,29.8,14.3
		c18.2,3.2,42.3,5,67.9,5s49.8-1.8,67.9-5c29.8-5.3,29.8-12.1,29.8-14.3H343C343,134.7,337.5,139.1,316.9,142.8z"/>
</g>
<g id="Hexagone">
	<path class="st1" d="M245.5,0L0,141.7v283.5l245.5,141.7L491,425.2V141.7L245.5,0z M474.2,415.5l-228.7,132l-228.7-132V151.4
		l228.7-132l228.7,132V415.5z"/>
</g>
<g id="Text">
	<g>
		<path class="st1" d="M137.6,374l0.5,3c2-3.2,4.7-3.7,7.4-3.7c2.7,0,5.3,1.1,6.7,2.5l-2.9,5.6c-1.3-1.1-2.5-1.7-4.7-1.7
			c-3.4,0-6.5,1.8-6.5,6.6v13.8h-6.5V374H137.6z"/>
		<path class="st1" d="M161,373.9v31.8c0,6.5-2.8,10.7-8.7,10.7c-1.9,0-3.9-0.5-5.8-1.8l2.3-5c1.1,0.5,2.2,0.8,3.1,0.7
			c2.1-0.1,2.6-1.8,2.6-4.6v-31.8H161z M154,366.6c0,5,7.6,5,7.6,0S154,361.5,154,366.6z"/>
		<path class="st1" d="M193.7,363.1v37.1h-6l-0.4-3.6c-2,3.1-5.3,4.2-8.4,4.2c-7.7,0-13.5-5.1-13.5-13.7c0-9,5.7-13.7,13.3-13.7
			c2.8,0,7.1,1.5,8.6,4.2v-14.5H193.7z M171.8,387c0,4.6,3.3,7.7,7.4,7.7c4.1,0,7.6-3,7.6-7.7c0-4.6-3.5-7.6-7.6-7.6
			C175.1,379.4,171.8,382.3,171.8,387z"/>
		<path class="st2" d="M207.6,384v-5.7h5.4c3.8,0,7.7-1,7.8-4.5c0-2.1-1.7-4.9-7.6-4.9c-3.3,0-7.7,1.2-7.7,4.6h-7
			c0-8,8-10.9,14.8-10.9c7,0,14.5,3.4,14.6,11.3c0,2.9-1.9,6.3-5.1,7.3c3.6,1.2,6,4.7,6,7.8c0,9.1-8.5,11.8-15.7,11.8
			c-7.1,0-15.1-3-15.2-11.4h7.1c0,3.8,5.1,5.1,8.2,5.1c3.6,0,8.3-1.5,8.3-5.5c0-2.2-1.2-5-7.9-5H207.6z"/>
		<path class="st1" d="M236.1,400.1V380h-4.9v-5.7h4.9v-1.8c0-7,4.7-10.2,10-10.2c2.3,0,4.7,0.7,6.8,2.1l-2.4,4.8
			c-1.4-0.9-2.7-1.4-4-1.4c-2.2,0-3.9,1.5-3.9,4.7v1.8h7.7v5.7h-7.7v20.1H236.1z"/>
		<path class="st1" d="M261.9,366.6c0,5-7.6,5-7.6,0C254.2,361.6,261.9,361.6,261.9,366.6z M254.8,373.9v26.2h6.5v-26.2H254.8z"/>
		<path class="st1" d="M273.5,363.1v37.1h-6.4v-37.1H273.5z"/>
		<path class="st1" d="M288.3,366.6v7.4h7.2v5.6h-7.3v11.3c0,2.5,1.4,3.7,3.4,3.7c1,0,2.2-0.3,3.1-0.8l1.8,5.5
			c-1.9,0.7-3.4,1.1-5.4,1.1c-5.7,0.2-9.4-3-9.4-9.5v-11.3H277V374h4.9v-6.7L288.3,366.6z"/>
		<path class="st1" d="M305.9,389.4c0.4,3.2,3.2,5.6,7.8,5.6c2.4,0,5.5-0.9,7-2.4l4.1,4.1c-2.8,2.9-7.3,4.2-11.2,4.2
			c-9,0-14.4-5.6-14.4-13.9c0-8,5.4-13.7,13.9-13.7c8.7,0,14.2,5.4,13.2,16.2H305.9z M320.1,384c-0.4-3.4-3.1-5.1-6.8-5.1
			c-3.5,0-6.4,1.7-7.3,5.1H320.1z"/>
		<path class="st1" d="M337.3,374l0.5,3c2-3.2,4.7-3.7,7.4-3.7c2.7,0,5.3,1.1,6.7,2.5l-2.9,5.6c-1.3-1.1-2.5-1.7-4.7-1.7
			c-3.4,0-6.5,1.8-6.5,6.6v13.8h-6.5V374H337.3z"/>
		<path class="st1" d="M371.4,380.9c-1.9-1.8-4-2.3-6.5-2.3c-3.1,0-4.8,1-4.8,2.6c0,1.7,1.5,2.7,4.9,2.9c4.9,0.3,11.2,1.4,11.2,8.4
			c0,4.6-3.8,8.6-11.2,8.6c-4.1,0-8.3-0.7-12.1-4.7l3.2-4.6c1.9,2.1,6.1,3.6,9,3.7c2.4,0.1,4.7-1.2,4.7-3.1c0-1.8-1.5-2.5-5.2-2.8
			c-4.9-0.4-10.8-2.2-10.8-8.1c0-6,6.3-8.2,11-8.2c4.1,0,7.2,0.8,10.2,3.4L371.4,380.9z"/>
	</g>
	
		<text id="github.com_x2F_rjdverse_x2F_rjd3filters" transform="matrix(0.866 -0.5 0.5 0.866 251.1744 531.5985)" class="st1 st10 st11">github.com/rjdverse/rjd3filters</text>
</g>
</svg>
